<svg width="76" height="77" viewBox="0 0 76 77" fill="none" xmlns="http://www.w3.org/2000/svg">
<path d="M20 14.0796C19.6 15.6796 19.1667 18.7462 19 20.0796C30.5 24.0796 53.5 31.8796 53.5 31.0796C53.5 30.2796 54.1667 29.0796 54.5 28.5796C54.6667 27.2463 55.2 24.4796 56 24.0796C57 23.5796 57.5 19.5796 58 18.0796C58.5 16.5796 57.5 11.5796 57.5 10.5796C57.5 9.57959 55.5 8.57959 54.5 8.07959C53.5 7.57959 52.5 7.57959 52 7.57959C51.6 7.57959 52.1667 6.57959 52.5 6.07959C46.8333 3.91292 35.6 -0.320413 36 0.0795749C36.4 0.479563 35.5 1.24625 35 1.57959C34.3333 1.57959 33 1.47959 33 1.07959C33 0.57959 32 0.579575 31 0.0795749C30 -0.420425 27 1.57957 26.5 2.07957C26 2.57957 25.5 3.57958 24 5.07958C22.5 6.57958 20.5 12.0796 20 14.0796Z" fill="#C4C4C4"/>
<path d="M32.3123 4.99995C28.7123 6.99995 27.4789 11.1666 27.3123 12.9999V14.5L45.3123 23C45.9789 22.1667 47.4123 20.4 47.8123 20C48.2123 19.6 48.6456 16.1667 48.8123 14.5C48.6456 12.8333 48.0123 9.1 46.8123 7.5C45.6123 5.9 42.6456 4.49997 41.3123 3.99995C39.8123 3.49995 35.9123 2.99995 32.3123 4.99995Z" fill="#D6D6D6"/>
<path d="M45.8122 23.5C46.4789 23.1666 48.1122 22.7 49.3122 23.5C50.5122 24.3 51.1455 25.5 51.3122 26C52.4789 27 54.9122 29.2 55.3122 30C55.7122 30.8 57.1455 32.6667 57.8122 33.5C57.8122 34.1667 57.9122 35.4 58.3122 35C58.8122 34.5 58.3122 34 59.3122 35C60.3122 36 62.3122 36.5 62.3122 35.5C62.3122 34.5 68.3122 35.5 68.3122 36C68.3122 36.5 68.8122 38 68.3122 39C67.8122 40 67.8122 42 66.8122 42.5C66.0122 42.9 65.8122 44 65.8122 44.5C65.8122 45.1667 65.6122 46.5 64.8122 46.5C63.8122 46.5 60.3122 49 57.8122 48C55.3122 47 55.482 47.0943 53.3122 45.5C53.0089 45.8033 52.1535 45.0026 52.2532 44.6048C52.0574 44.9154 51.6714 45.2183 51.3122 44.5C50.9122 43.7 50.4789 43.8333 50.3122 44C49.4789 44.1667 47.8122 44.1 47.8122 42.5C47.8122 40.9 47.1455 40.8333 46.8122 41C46.3122 41.5 45.1122 42.6 44.3122 43C43.5122 43.4 42.3122 44.8333 41.8122 45.5C41.6455 46 41.3122 47.1 41.3122 47.5C41.3122 48 42.3122 47 42.3122 48V50C42.3122 50.6667 42.1122 52 41.3122 52C40.5122 52 40.6455 52.6667 40.8122 53C40.8122 53.3333 40.6123 54 39.8123 54C39.0123 54 39.4789 56.3333 39.8123 57.5C39.8122 58 39.7122 59.1 39.3122 59.5C38.9122 59.9 39.1455 60.6667 39.3122 61C39.3122 61.8333 37.887 65.3966 37.3123 66C37.3123 67 37.1123 69.1 36.3123 69.5C35.8123 70.3333 34.9123 72.1 35.3123 72.5C35.8123 73 30.8122 78 28.3122 76C25.8122 74 24.8122 73.5 24.3122 71.5C23.8122 69.5 24.3122 65 24.3122 63.5C24.3122 62 23.8121 60 24.3122 59.5C24.8122 59 23.8122 58.5 23.3122 59C22.9122 59.4 22.1456 60.8333 21.8122 61.5C21.8122 62.5 21.6122 64.5 20.8122 64.5C20.0122 64.5 19.8122 65.1667 19.8122 65.5C19.6456 66.1667 19.1122 67.5 18.3122 67.5C17.5122 67.5 15.3123 68.5 14.3123 69C12.8123 69.1667 9.71225 68.9 9.31225 66.5C8.91225 64.1 8.81225 61.8333 8.81225 61C8.81225 60.1667 8.71225 58.4 8.31225 58C7.91225 57.6 9.47892 53.8333 10.3123 52L11.3123 49.5C11.1456 49.1667 11.0123 48.4 11.8123 48L13.8123 47L14.8123 44.5C14.8123 43.6667 14.9123 42 15.3123 42C15.8123 42 14.3123 38.5 14.8123 37.5C15.2123 36.7 15.9789 34.8333 16.3123 34V32.5C16.6456 31.8333 17.1123 30.5 16.3123 30.5C15.3123 30.5 11.3123 30.5 10.8123 30C10.3123 29.5 11.3123 29.5 10.3123 29.5C9.31226 29.5 8.31225 29 7.31226 28.5C6.23894 27.9634 6.81226 27.5 5.81226 27C5.31226 26 4.45724 26.29 3.81226 25C3.31226 24 2.81226 24 2.81217 23.5C2.8119 22.0001 1.81222 21.5 1.81226 20C1.81231 18 3.14551 17.1667 3.31214 16.5L3.81226 12.5C4.97892 11.8333 7.51225 10.7 8.31225 11.5C9.31225 12.5 10.8123 18 11.8123 18C12.9436 18 13.1456 18.1667 13.8123 18.5C14.4789 19.3333 16.0121 17.9 18.8121 17.5C21.6121 17.1 23.9788 16.6667 24.8121 16.5C25.6455 16.1667 27.3121 15.9 27.3121 17.5C27.3121 19.5 28.8121 23.5 30.3121 24C31.5121 24.4 41.1455 23.8333 45.8122 23.5Z" fill="#D6D6D6"/>
<path d="M34.8122 13.5C33.2122 13.1 28.5175 12.5 27.8122 13.5C27.3122 14.2089 27.3122 16.3 27.3122 17.5V17.5C27.3122 19 27.0719 21.7511 28.3122 24C29.6525 26.4301 31.1785 27.6253 33.8122 28.5C36.598 29.4252 38.6966 29.3325 41.3122 28C44.1658 26.5462 45.8122 22.5 46.3122 21.5C46.8122 20.5 46.8122 19 45.8122 17.5C44.8122 16 36.8127 14.0001 34.8124 13.5001L34.8122 13.5Z" fill="#12323E"/>
<path d="M36.8238 34.5838C32.7412 33.7049 25.4222 29.9736 25.4222 29.9736C25.4222 29.9736 23.9848 34.6022 22.9472 36.6911C21.6502 39.3022 23.2644 40.6785 24.7994 41.058C26.3343 41.4374 28.9851 43.2328 30.0612 44.1503C30.9222 44.8844 32.7988 44.9357 33.6295 44.8696C33.5105 43.3743 37.0617 37.5744 37.9792 36.4982C38.7133 35.6373 37.5148 34.8632 36.8238 34.5838Z" fill="#C4C4C4"/>
<path d="M12.5427 11.0934C11.76 12.1452 11.8966 13.5762 11.9635 14.5087C11.8124 15 11.182 16.2802 10.8124 17C9.42831 19.7523 7.3444 19.9855 6.78348 19.8143C6.01787 19.7113 4.37932 19.1831 3.94993 17.8941C3.52055 16.6051 2.84341 14.3251 2.81235 13.5C2.74551 12.5676 2.81235 11.5 2.81235 9.50004C2.81235 7.51861 3.31235 6.00004 3.94993 6.384L4.55047 9.81784C4.59335 8.84887 4.45183 7.05218 4.81235 5.50004C5.26301 3.55987 6.31235 4.00004 6.31235 5.00004C6.31235 5.97678 6.13401 7.61963 6.19612 9.26965C6.27241 8.76689 6.68284 8.00101 7.31234 5.50005C7.94184 2.99909 8.76015 2.98944 8.81238 4L7.3982 9.58524C8.21377 7.64284 9.23301 4.79527 9.67374 4.36205C10.1145 3.92883 10.391 4.63844 10.3124 5.5C9.93801 6.93741 8.81238 10.382 8.81238 11C8.81238 11.5 9.27777 12.3005 9.67374 13.1233C10.041 12.7623 10.8982 11.7578 10.8124 11.5C10.7265 11.2422 12.369 9.35103 12.5427 9.66156C12.8157 10.1496 13.0412 10.4236 12.5427 11.0934Z" fill="#C4C4C4"/>
<path d="M63.5242 30.3707C63.5122 31.0329 62.4593 32.2723 61.9593 33.2723C61.5997 33.9917 61.2075 34.4952 60.9593 35.2723C59.9921 38.2175 60.7636 40.2823 61.2309 40.6758C61.7814 41.2942 63.1652 42.4263 64.2963 42.0075C65.4274 41.5886 66.8512 40.5132 67.4218 40.0278C68.0866 39.5076 69.7585 38.1759 71.1278 37.011C72.4971 35.8461 72.2371 35.4436 71.9594 35.2723L69.3123 36.4499C69.9325 35.8091 71.1496 34.0589 71.9594 32.7723C72.9716 31.1641 71.6082 31.3061 71.4594 31.7723C71.3402 32.1453 69.784 33.6714 68.6429 34.6421C68.9307 34.2615 69.8248 32.9711 71.099 30.8548C72.3731 28.7384 71.4753 28.7183 70.9594 28.7723L67.6757 33.7669C68.4598 31.8321 69.9473 28.4345 69.9593 27.7723C69.9714 27.11 69.1688 27.6664 68.6429 28.2723C67.9185 29.4998 66.5982 32.0476 66.2919 32.6348C65.9593 33.2723 64.6795 33.7801 63.8808 33.9388C63.8908 33.3869 63.9593 32.6348 64.1936 32.1784C64.3038 31.9638 64.489 30.7206 64.4593 29.7723C64.2654 29.5328 63.5362 29.7084 63.5242 30.3707Z" fill="#C4C4C4"/>
<circle cx="30.8123" cy="16" r="2" fill="white"/>
</svg>
