<svg width="66" height="106" viewBox="0 0 66 106" fill="none" xmlns="http://www.w3.org/2000/svg">
<path d="M45.5 21C41.9 17.4 37.3333 17.8334 35.5 18.5C36.3 16.5001 35.8334 13.6667 35.5 12.5C36.3 12.1 36.5 11 36.5 10.5C36 10.5 34 9.5 33 9C32.2 8.6 29 5.16667 27.5 3.5C27.5 1.9 25.8333 1.16671 25 1.00007C24.2 0.600071 24 1.50007 24 2.00007H21.5C21.9 1.20007 20.6667 1.00007 20 1.00007C14.4 1.00007 7.33333 3.66674 4.5 5.00007C1.3 7.00007 0.5 13.1667 0.5 16.0001C0.49994 22.0001 1.49997 23.1667 2 23.0001C2.8 23.4001 4.33333 21.5001 5 20.5001C5.8 20.5001 6.33333 21.8334 6.5 22.5001C4.1 24.5001 5.5 26.3334 6.5 27.0001C6.1 28.2001 6 30.8334 6 32.0001C3.2 34.4001 2.83333 36.0001 3 36.5001C1.8 37.3001 1.49999 38.8334 1.49999 39.5001C0.299974 39.9001 0.333374 41.6667 0.500075 42.5001C0.100075 46.5001 1.00002 48.5001 1.49999 49.0001C0.299985 50.2001 2.33332 52.1667 3.49999 53.0001C3.49999 54.5001 10.5 59.5001 11.5 60.0001C12.3 60.4001 12.5 59.5001 12.5 59.0001C12.8999 58.6001 12.6666 58.1667 12.5 58.0001C13.3 57.6001 13.5 57.1667 13.5 57.0001V65.0001C13.1667 66.6667 12.7 70.1001 13.5 70.5001C14.3001 70.9001 13.8334 74.0001 13.5 75.5001C13.3334 75.5001 12.8 75.6001 12 76.0001C11.2001 76.4001 11.6667 79.8334 12 81.5001C11.2 85.1001 12.6667 86.3334 13.5 86.5001C13.1 88.5001 14.6667 90.0001 15.5 90.5001C14.7 91.7001 15.5 92.6667 16 93.0001C15 93.0001 14.5 95.5001 15 96.0001C15.4 96.4001 15.1667 97.8334 15 98.5001C13.5 100.5 14 102.5 14.5 104C15 105.5 17.5 106 19 106C20.5 106 21.5 104.5 22.5 103C23.3 101.8 22.5 99.5001 22 98.5001C21.8334 97.6667 21.7 95.9001 22.5 95.5001C23.3 95.1001 22.5 94.3334 22 94.0001C20.8 93.6001 21.1667 92.8334 21.5 92.5001C22.5 91.5001 22 92.0001 21 91.0001C20.2 90.2001 20.6667 89.6667 21 89.5001L23 87.0001C25.4 85.0001 25 83.1667 24.5 82.5001C25.7 81.7001 26 80.5001 26 80.0001C28 79.2001 28.1667 77.3334 28 76.5001C27.5 74.8334 26.7 71.3001 27.5 70.5001C28.3 69.7001 28.8333 64.1667 29 61.5001C29.4 62.3001 30.8333 61.1667 31.5 60.5001C31.8333 61.3334 32.8 63.1001 34 63.5001C35.5 64.0001 41 71.5001 41 72.5001C41 73.5001 42 74.5001 43 74.5001C43.8 74.5001 45 76.5001 45.5 77.5001C45.9 79.9001 48 81.5001 49 82.0001C49.8 82.4001 49.6667 83.8334 49.5 84.5001C49.1 85.3001 50.3333 86.5001 51 87.0001C52.5 87.5001 58 91.0001 59.5 92.0001C60.7 92.8001 63 92.3334 64 92.0001C64.3334 91.6667 65.1 90.4001 65.5 88.0001C65.9 85.6001 64 84.3334 63 84.0001C63 82.8001 60.3333 81.1667 59 80.5001C59 79.0001 57.5 79.5001 56.5 78.0001C55.7 76.8001 56.5 74.8334 57 74.0001C57.4 72.8001 55.8333 69.8334 55 68.5001C55.4 68.1001 55.5 66.6667 55.5 66.0001C55.5 64.8001 52.8333 62.8334 51.5 62.0001C51.9 60.8001 50.6667 58.5001 50 57.5001C50.8 56.3001 43.3333 47.3334 39.5 43.0001C40.6667 42.1667 43 40.3001 43 39.5001C43 38.7001 41.3333 38.1667 40.5 38.0001C40.5 36.8001 39.5 34.1667 39 33.0001C39.8 33.8001 45.3333 36.0001 48 37.0001C48.5 39.0001 52 41.5001 52.5 42.0001C52.9 42.4001 55 42.1667 56 42.0001L58 43.0001C58 43.5001 58.2 44.7001 59 45.5001C59.8 46.3001 60.3334 45.5001 60.5 45.0001L59.5 42.0001L61.5 44.5001C61.6667 44.8334 62.1 45.9001 62.5 47.5001C62.9 49.1001 63.6667 48.8334 64 48.5001L63 42.5001C61.6667 41.1667 59.1 38.1001 59.5 36.5001C59.9 34.9001 58 32.5001 57 31.5001C54.6667 29.5001 49.1 24.6 45.5 21Z" fill="#D6D6D6"/>
<path d="M59.5 37C55.9 37 55.6667 40.3333 56 42L58 43C58 43.5 58.2 44.7 59 45.5C59.8 46.3 60.3333 45.5 60.5 45L59.5 42L61.5 44.5C61.6667 44.8333 62.1 45.9 62.5 47.5C62.9 49.1 63.6667 48.8333 64 48.5L63 42.5C61.4 41.3 60 38.3333 59.5 37Z" fill="#C4C4C4"/>
<path d="M37 31C38.2 31 38.8333 32.3333 39 33C39.5 34.6667 40.4 38.1 40 38.5C39.6 38.9 33.5 42.3333 30.5 44C28.8333 41.1667 25.9 35.5 27.5 35.5C29.5 35.5 35.5 31 37 31Z" fill="#C4C4C4"/>
<path d="M14.9999 14C15.7999 8.80002 22.3333 6.50002 25.4999 6.00002C26 5.83336 27.4 5.90002 29 7.50002C31 9.50002 34 11 35 12C35.8 12.8 35.3333 14.3334 35 15L33 28.5C31.6667 29.1667 28.5 30.5 26.5 30.5C24 30.5 17.9999 26.5 16.4999 24.5C14.9999 22.5 13.9999 20.5 14.9999 14Z" fill="#C9C9C9"/>
<path d="M35.5 19C35.5 15.5 34.5 13.5001 31 13.5C27.5 13.4999 19 19 18.5 21.5C18.1 23.5 22.3333 26.6667 24.5 28C26.9 28.8 29.5 28.5 31.5 27C33.5 25.5 35.5 22.5 35.5 19Z" fill="#12323E"/>
<circle cx="24.5" cy="18.5" r="1.5" fill="white"/>
<path d="M65.5 87.5C65.5 85.5 63.8333 84.3333 63 84C59 84 56.3333 87.6667 55.5 89.5L59 91.5C59.3333 91.8333 60.2 92.5 61 92.5C61.8 92.5 63.3333 92.1667 64 92C64.5 91.3333 65.5 89.5 65.5 87.5Z" fill="#ADADAD"/>
<path d="M22.5 103C23.3 101.8 22.5 99.5 22 98.5C18.8 97.3 16 98 15 98.5L14 100.5C13.6 101.3 14.1667 103.5 14.5 104.5C15.3333 105 17.2 106 18 106C18.8 106 20 105.667 20.5 105.5C20.8333 105.167 21.7 104.2 22.5 103Z" fill="#C4C4C4"/>
</svg>
