<?xml version="1.0" encoding="UTF-8" standalone="no"?>
<!DOCTYPE svg PUBLIC "-//W3C//DTD SVG 1.1//EN" "http://www.w3.org/Graphics/SVG/1.1/DTD/svg11.dtd">
<svg version="1.1" xmlns="http://www.w3.org/2000/svg" xmlns:xlink="http://www.w3.org/1999/xlink" preserveAspectRatio="xMidYMid meet" viewBox="0 0 1200 800" width="1200" height="800"><defs><path d="M522.8 152.92C535.15 168.63 555.35 177.05 576.45 177.06C590.51 177.06 602.18 173.69 611.48 166.95L870.79 169.55C878.27 168.57 885.01 166.01 891 161.9C896.98 157.78 900.47 150.49 901.47 140.01C911.32 138.51 916.25 132.15 916.25 120.92C916.25 109.7 907.83 102.03 891 97.91C907.46 105.77 922.99 108.39 937.58 105.77C952.17 103.15 965.64 95.11 977.99 81.64C999.7 99.97 1020.28 108.02 1039.73 105.77C1059.19 103.53 1075.65 93.99 1089.12 77.15L1279.41 77.15C1298.11 75.65 1307.47 66.3 1307.48 49.09C1307.49 31.87 1298.14 22.52 1279.41 21.02L1102.26 21.02C1100.99 18.03 1099.04 13.72 1096.42 8.11C1093.8 2.5 1090.06 -3.12 1085.2 -8.73C1072.85 -25.19 1055.15 -33.42 1032.1 -33.42C1009.05 -33.42 991.01 -25.19 977.99 -8.73C962.28 -25.19 944.3 -33.42 924.05 -33.42C903.81 -33.42 889.61 -28.37 881.45 -18.27L692.31 -18.27C703.16 -31.74 706.15 -43.53 701.29 -53.63C696.42 -63.73 687.92 -69.02 675.79 -69.48C665.47 -68.27 657.88 -64.67 653.02 -58.68C648.15 -52.7 646.39 -44.28 647.73 -33.42C622.44 -31.93 604.37 -23.7 593.52 -8.73C582.67 6.24 576.98 21.39 576.45 36.74C556.4 37.11 539.45 44.22 525.61 58.06C504.84 78.83 506.43 96.65 506.29 106.9C506.15 117.14 510.45 137.2 522.8 152.92Z" id="b3L9NBas2"></path><path d="M1404.53 192.31C1396.84 182.53 1384.27 177.29 1371.15 177.29C1362.4 177.29 1355.13 179.39 1349.35 183.58L1188.01 181.96C1183.35 182.57 1179.16 184.16 1175.44 186.72C1171.71 189.28 1169.54 193.82 1168.92 200.34C1162.79 201.27 1159.72 205.23 1159.72 212.22C1159.72 219.2 1164.96 223.97 1175.44 226.53C1165.19 221.65 1155.53 220.02 1146.45 221.65C1137.37 223.28 1128.99 228.28 1121.31 236.66C1107.8 225.25 1095 220.25 1082.89 221.64C1070.78 223.04 1060.54 228.98 1052.16 239.45L933.76 239.45C922.13 240.39 916.31 246.21 916.3 256.92C916.29 267.62 922.11 273.44 933.76 274.38L1043.99 274.38C1044.78 276.24 1045.99 278.92 1047.62 282.41C1049.25 285.9 1051.58 289.39 1054.6 292.89C1062.29 303.13 1073.3 308.25 1087.64 308.25C1101.98 308.25 1113.21 303.13 1121.31 292.89C1131.08 303.13 1142.27 308.25 1154.87 308.25C1167.46 308.25 1176.3 305.11 1181.37 298.82L1299.06 298.82C1292.31 307.21 1290.45 314.54 1293.47 320.82C1296.5 327.11 1301.79 330.4 1309.34 330.69C1315.76 329.93 1320.48 327.69 1323.51 323.97C1326.53 320.24 1327.63 315 1326.8 308.25C1342.53 307.32 1353.77 302.2 1360.52 292.89C1367.27 283.57 1370.82 274.14 1371.15 264.6C1383.62 264.37 1394.16 259.94 1402.78 251.33C1415.7 238.41 1414.71 227.32 1414.8 220.95C1414.89 214.57 1412.21 202.09 1404.53 192.31Z" id="d3igZstx6q"></path><path d="M-522.8 45.02C-515.12 54.79 -502.55 60.03 -489.43 60.03C-480.68 60.04 -473.41 57.94 -467.63 53.75L-306.28 55.37C-301.63 54.75 -297.44 53.16 -293.71 50.6C-289.99 48.04 -287.82 43.5 -287.2 36.98C-281.06 36.05 -278 32.09 -278 25.11C-278 18.13 -283.24 13.35 -293.71 10.79C-283.47 15.68 -273.81 17.31 -264.73 15.68C-255.65 14.05 -247.27 9.05 -239.58 0.66C-226.08 12.07 -213.28 17.08 -201.17 15.68C-189.06 14.29 -178.82 8.35 -170.44 -2.13L-52.04 -2.13C-40.41 -3.06 -34.59 -8.88 -34.58 -19.59C-34.57 -30.3 -40.39 -36.12 -52.04 -37.05L-162.27 -37.05C-163.06 -38.91 -164.27 -41.59 -165.9 -45.08C-167.53 -48.58 -169.86 -52.07 -172.88 -55.56C-180.56 -65.8 -191.58 -70.93 -205.92 -70.92C-220.26 -70.92 -231.48 -65.8 -239.58 -55.56C-249.36 -65.8 -260.55 -70.93 -273.15 -70.92C-285.74 -70.92 -294.58 -67.78 -299.65 -61.5L-417.34 -61.5C-410.59 -69.88 -408.72 -77.21 -411.75 -83.5C-414.78 -89.78 -420.06 -93.07 -427.61 -93.36C-434.03 -92.61 -438.76 -90.37 -441.78 -86.64C-444.81 -82.92 -445.91 -77.68 -445.07 -70.92C-460.81 -69.99 -472.05 -64.87 -478.8 -55.56C-485.55 -46.25 -489.09 -36.82 -489.43 -27.27C-501.9 -27.04 -512.44 -22.62 -521.06 -14C-533.98 -1.08 -532.99 10.01 -533.08 16.38C-533.17 22.75 -530.49 35.24 -522.8 45.02Z" id="ffFR6Gvo9"></path><path d="M1535.83 930.75C1535.83 929.48 1535.83 930.75 1535.83 930.75C1535.83 929.85 1535.73 928.96 1535.54 928.08C1534.95 925.34 1534.65 923.94 1534.36 922.58C1533.21 917.19 1530.77 912.17 1527.26 907.94C1516.91 895.46 1506.23 889.17 1495.24 889.09C1481.73 889 1471.6 892.3 1464.85 899.02L1396.06 899.02C1399.08 899.49 1400.71 898.09 1400.95 894.83C1401.18 891.57 1400.01 889.66 1397.45 889.09L1320.24 889.09C1258.46 889.09 1219.84 889.09 1204.4 889.09C1201.76 889.09 1199.14 889.52 1196.63 890.35C1187.74 893.3 1183.34 898.95 1183.44 907.3C1183.54 916.58 1188.67 922.06 1198.83 923.75C1199.88 923.93 1200.95 924.02 1202.01 924.02C1212.1 924.02 1237.32 924.02 1277.67 924.02C1276.04 937.15 1278.25 948.38 1284.3 957.69C1290.36 967 1298.51 972.59 1308.75 974.45C1311.08 979.57 1314.22 984.46 1318.18 989.12C1321.77 993.35 1327.11 996.94 1334.19 999.89C1335.28 1000.35 1335.97 1001.42 1335.94 1002.59C1335.93 1003 1335.93 1003.39 1335.93 1003.77C1336.07 1017.11 1341.46 1023.71 1352.11 1023.57C1362.8 1023.44 1368.35 1017.05 1368.76 1004.4C1368.79 1003.41 1369.6 1002.63 1370.58 1002.63C1375.08 1002.63 1386.69 1002.63 1391.16 1002.63C1392.32 1002.63 1393.39 1003.28 1393.92 1004.32C1401.46 1019.1 1413.84 1026.49 1431.06 1026.49C1449.04 1026.49 1462.4 1017.27 1471.14 998.84C1478.46 1000.27 1484.16 998.68 1488.25 994.06C1492.34 989.43 1493.65 983.55 1492.17 976.4C1506.79 973.94 1517.59 969.21 1524.57 962.23C1535.05 951.75 1536.07 943.01 1535.83 934.49C1535.58 925.96 1535.83 932.02 1535.83 930.75Z" id="bA6un3lao"></path><path d="M-160.46 826.76C-160.46 829.48 -160.46 826.76 -160.46 826.76C-160.46 828.68 -160.26 830.58 -159.85 832.45C-158.6 838.3 -157.96 841.29 -157.33 844.2C-154.87 855.68 -149.67 866.39 -142.17 875.43C-120.09 902.06 -97.32 915.46 -73.86 915.63C-45.05 915.84 -23.44 908.78 -9.03 894.46L137.75 894.46C131.29 893.46 127.81 896.44 127.32 903.4C126.82 910.35 129.3 914.43 134.77 915.63L299.5 915.63C431.32 915.64 513.7 915.64 546.66 915.64C552.29 915.64 557.89 914.73 563.23 912.96C582.21 906.67 591.59 894.61 591.39 876.79C591.16 856.99 580.21 845.29 558.53 841.69C556.29 841.31 554.02 841.12 551.75 841.12C530.22 841.12 476.42 841.12 390.33 841.12C393.81 813.1 389.09 789.15 376.18 769.28C363.26 749.41 345.88 737.49 324.02 733.52C319.05 722.59 312.35 712.16 303.9 702.23C296.23 693.2 284.84 685.54 269.74 679.24C267.42 678.27 265.94 675.99 266.01 673.49C266.03 672.62 266.03 671.78 266.03 670.97C265.72 642.51 254.22 628.43 231.52 628.71C208.71 629 196.87 642.64 195.99 669.63C195.92 671.73 194.2 673.39 192.1 673.39C182.51 673.39 157.72 673.39 148.19 673.39C145.71 673.39 143.44 672 142.31 669.79C126.22 638.27 99.81 622.5 63.07 622.5C24.7 622.5 -3.8 642.16 -22.45 681.49C-38.06 678.42 -50.23 681.82 -58.95 691.69C-67.68 701.55 -70.47 714.11 -67.32 729.36C-98.5 734.62 -121.54 744.7 -136.44 759.6C-158.8 781.95 -160.97 800.6 -160.46 818.78C-159.94 836.97 -160.46 824.05 -160.46 826.76Z" id="awTNEA6y"></path><path d="M1544.78 368.18C1544.78 366.91 1544.78 368.18 1544.78 368.18C1544.78 367.28 1544.68 366.39 1544.49 365.51C1543.9 362.77 1543.6 361.37 1543.31 360C1542.16 354.62 1539.72 349.6 1536.21 345.37C1525.86 332.88 1515.18 326.6 1504.19 326.52C1490.68 326.42 1480.55 329.73 1473.8 336.45L1405.01 336.45C1408.03 336.91 1409.66 335.52 1409.9 332.26C1410.13 329 1408.96 327.09 1406.4 326.52L1329.19 326.52C1267.41 326.52 1228.79 326.52 1213.35 326.52C1210.71 326.52 1208.09 326.94 1205.58 327.78C1196.69 330.72 1192.29 336.38 1192.39 344.73C1192.49 354.01 1197.62 359.49 1207.78 361.18C1208.83 361.36 1209.9 361.45 1210.96 361.45C1221.05 361.45 1246.27 361.45 1286.62 361.45C1284.99 374.58 1287.2 385.8 1293.25 395.12C1299.31 404.43 1307.46 410.02 1317.7 411.88C1320.03 417 1323.17 421.89 1327.13 426.55C1330.72 430.78 1336.06 434.37 1343.14 437.32C1344.23 437.77 1344.92 438.84 1344.89 440.02C1344.88 440.43 1344.88 440.82 1344.88 441.2C1345.02 454.54 1350.41 461.14 1361.06 461C1371.75 460.87 1377.3 454.47 1377.71 441.83C1377.74 440.84 1378.55 440.06 1379.53 440.06C1384.03 440.06 1395.64 440.06 1400.11 440.06C1401.27 440.06 1402.34 440.71 1402.87 441.75C1410.41 456.53 1422.79 463.91 1440.01 463.91C1457.99 463.91 1471.35 454.7 1480.09 436.27C1487.41 437.7 1493.11 436.11 1497.2 431.49C1501.29 426.86 1502.6 420.98 1501.12 413.83C1515.74 411.37 1526.54 406.64 1533.52 399.66C1544 389.18 1545.02 380.44 1544.78 371.92C1544.53 363.39 1544.78 369.45 1544.78 368.18Z" id="f5wNEjTMQM"></path><path d="M366.73 1025.41C378.26 1040.08 397.12 1047.94 416.8 1047.94C429.93 1047.95 440.83 1044.8 449.51 1038.51L691.54 1040.94C698.53 1040.02 704.81 1037.64 710.4 1033.8C715.99 1029.95 719.25 1023.14 720.18 1013.36C729.38 1011.97 733.98 1006.03 733.98 995.55C733.98 985.07 726.12 977.91 710.4 974.07C725.77 981.41 740.26 983.85 753.89 981.41C767.51 978.96 780.08 971.45 791.61 958.88C811.86 975.99 831.07 983.5 849.23 981.41C867.4 979.32 882.76 970.41 895.34 954.69L1072.95 954.69C1090.4 953.29 1099.14 944.56 1099.15 928.5C1099.16 912.43 1090.43 903.7 1072.95 902.3L907.59 902.3C906.41 899.51 904.59 895.49 902.15 890.25C899.7 885.01 896.21 879.77 891.67 874.53C880.14 859.17 863.62 851.48 842.11 851.49C820.59 851.49 803.76 859.17 791.61 874.53C776.94 859.17 760.15 851.48 741.26 851.49C722.36 851.49 709.11 856.2 701.5 865.63L524.95 865.63C535.07 853.05 537.87 842.05 533.33 832.62C528.79 823.19 520.86 818.26 509.53 817.82C499.9 818.96 492.81 822.32 488.27 827.91C483.73 833.5 482.09 841.36 483.34 851.49C459.74 852.88 442.87 860.56 432.74 874.53C422.61 888.5 417.3 902.65 416.8 916.97C398.09 917.32 382.27 923.95 369.35 936.88C349.97 956.26 351.45 972.9 351.32 982.46C351.19 992.02 355.21 1010.75 366.73 1025.41Z" id="afkyrT2dc"></path><path d="M1397.25 585.58C1381.13 565.06 1354.75 554.07 1327.21 554.06C1308.85 554.06 1293.6 558.46 1281.46 567.26L942.87 563.86C933.1 565.15 924.31 568.48 916.49 573.85C908.67 579.23 904.11 588.76 902.81 602.44C889.94 604.39 883.51 612.7 883.51 627.35C883.51 642.01 894.5 652.03 916.49 657.4C894.99 647.14 874.71 643.72 855.66 647.14C836.6 650.56 819.02 661.07 802.89 678.66C774.56 654.71 747.68 644.21 722.28 647.14C696.87 650.07 675.37 662.53 657.78 684.51L409.32 684.51C384.9 686.47 372.69 698.69 372.67 721.16C372.66 743.63 384.87 755.84 409.32 757.8L640.64 757.8C642.3 761.71 644.84 767.33 648.26 774.66C651.68 781.99 656.56 789.32 662.91 796.65C679.04 818.15 702.15 828.89 732.25 828.89C762.34 828.89 785.89 818.14 802.89 796.65C823.41 818.15 846.89 828.89 873.32 828.89C899.76 828.89 918.3 822.29 928.95 809.11L1175.92 809.11C1161.76 826.7 1157.85 842.09 1164.2 855.28C1170.55 868.47 1181.65 875.37 1197.49 875.98C1210.96 874.39 1220.87 869.69 1227.23 861.87C1233.58 854.06 1235.88 843.06 1234.13 828.89C1267.15 826.94 1290.74 816.19 1304.91 796.65C1319.08 777.1 1326.51 757.32 1327.21 737.28C1353.38 736.8 1375.51 727.51 1393.59 709.44C1420.7 682.32 1418.63 659.05 1418.81 645.67C1419 632.3 1413.37 606.1 1397.25 585.58Z" id="h5hWKxoJW"></path><path d="M913.09 371.97C913.09 371 913.09 371.97 913.09 371.97C913.09 371.29 913.16 370.61 913.31 369.94C913.76 367.85 913.99 366.77 914.21 365.73C915.09 361.63 916.95 357.79 919.63 354.56C927.54 345.03 935.69 340.23 944.08 340.17C954.39 340.1 962.12 342.62 967.28 347.75L1019.8 347.75C1017.49 348.1 1016.25 347.04 1016.07 344.55C1015.89 342.06 1016.78 340.6 1018.74 340.17L1077.68 340.17C1124.85 340.17 1154.34 340.17 1166.13 340.17C1168.14 340.17 1170.15 340.49 1172.06 341.13C1178.85 343.38 1182.21 347.69 1182.13 354.07C1182.05 361.16 1178.13 365.34 1170.38 366.63C1169.58 366.77 1168.76 366.83 1167.95 366.83C1160.25 366.83 1140.99 366.83 1110.19 366.83C1111.43 376.86 1109.74 385.43 1105.12 392.54C1100.5 399.65 1094.28 403.92 1086.46 405.34C1084.68 409.25 1082.28 412.98 1079.26 416.54C1076.52 419.77 1072.44 422.51 1067.03 424.76C1066.21 425.11 1065.68 425.93 1065.7 426.82C1065.71 427.13 1065.71 427.43 1065.71 427.72C1065.6 437.91 1061.48 442.95 1053.36 442.84C1045.2 442.74 1040.96 437.86 1040.64 428.2C1040.62 427.45 1040 426.86 1039.25 426.86C1035.82 426.86 1026.95 426.86 1023.54 426.86C1022.65 426.86 1021.84 427.35 1021.43 428.14C1015.68 439.43 1006.23 445.07 993.08 445.07C979.35 445.07 969.15 438.03 962.48 423.96C956.89 425.06 952.54 423.84 949.41 420.31C946.29 416.78 945.29 412.29 946.42 406.83C935.26 404.95 927.02 401.34 921.68 396.01C913.69 388.01 912.91 381.34 913.09 374.83C913.27 368.32 913.09 372.94 913.09 371.97Z" id="b2CcAs3CBf"></path><path d="M1147.18 577.72C1147.18 578.25 1147.18 577.72 1147.18 577.72C1147.18 578.1 1147.14 578.47 1147.07 578.83C1146.82 579.97 1146.7 580.55 1146.57 581.12C1146.09 583.35 1145.08 585.44 1143.62 587.2C1139.33 592.38 1134.89 594.99 1130.33 595.02C1124.72 595.06 1120.52 593.69 1117.71 590.9L1089.14 590.9C1090.4 590.71 1091.08 591.29 1091.17 592.64C1091.27 593.99 1090.79 594.79 1089.72 595.02L1057.66 595.02C1032.01 595.02 1015.97 595.02 1009.56 595.02C1008.46 595.02 1007.38 594.85 1006.33 594.5C1002.64 593.28 1000.82 590.93 1000.86 587.46C1000.9 583.61 1003.03 581.33 1007.25 580.63C1007.69 580.56 1008.13 580.52 1008.57 580.52C1012.76 580.52 1023.23 580.52 1039.99 580.52C1039.31 575.07 1040.23 570.41 1042.74 566.54C1045.25 562.67 1048.64 560.35 1052.89 559.58C1053.86 557.45 1055.16 555.42 1056.81 553.49C1058.3 551.73 1060.52 550.24 1063.46 549.01C1063.91 548.83 1064.19 548.38 1064.18 547.89C1064.18 547.89 1064.18 547.73 1064.18 547.4C1064.24 541.87 1066.48 539.12 1070.9 539.18C1075.33 539.24 1077.64 541.89 1077.81 547.14C1077.82 547.55 1078.16 547.88 1078.57 547.88C1080.43 547.88 1085.26 547.88 1087.11 547.88C1087.6 547.88 1088.04 547.6 1088.26 547.17C1091.39 541.04 1096.53 537.97 1103.68 537.97C1111.15 537.97 1116.69 541.8 1120.32 549.45C1123.36 548.85 1125.73 549.52 1127.43 551.44C1129.13 553.36 1129.67 555.8 1129.06 558.77C1135.12 559.79 1139.61 561.75 1142.51 564.65C1146.86 569 1147.28 572.63 1147.18 576.17C1147.08 579.71 1147.18 577.2 1147.18 577.72Z" id="cTVS0uY5P"></path><path d="M965.22 241.71C965.22 242.78 965.22 241.71 965.22 241.71C965.22 242.47 965.14 243.22 964.98 243.96C964.49 246.28 964.23 247.46 963.98 248.62C963.01 253.16 960.95 257.41 957.98 260.99C949.23 271.54 940.21 276.84 930.92 276.91C919.5 276.99 910.94 274.2 905.24 268.52L847.09 268.52C849.65 268.13 851.03 269.31 851.22 272.07C851.42 274.82 850.44 276.44 848.27 276.91L783.02 276.91C730.8 276.91 698.16 276.91 685.11 276.91C682.88 276.91 680.66 276.56 678.54 275.85C671.03 273.36 667.31 268.58 667.39 261.52C667.48 253.68 671.82 249.05 680.41 247.62C681.3 247.47 682.19 247.4 683.1 247.4C691.62 247.4 712.93 247.4 747.04 247.4C745.66 236.3 747.53 226.81 752.64 218.94C757.76 211.07 764.65 206.35 773.3 204.77C775.27 200.44 777.93 196.31 781.27 192.37C784.31 188.8 788.82 185.76 794.81 183.27C795.72 182.89 796.31 181.98 796.29 180.99C796.28 180.65 796.27 180.31 796.28 179.99C796.4 168.72 800.95 163.14 809.95 163.25C818.98 163.37 823.67 168.77 824.02 179.46C824.05 180.29 824.73 180.95 825.56 180.95C829.36 180.95 839.18 180.95 842.96 180.95C843.94 180.95 844.84 180.4 845.29 179.53C851.66 167.04 862.12 160.79 876.68 160.79C891.87 160.79 903.16 168.58 910.55 184.16C916.73 182.95 921.56 184.29 925.01 188.2C928.47 192.11 929.58 197.08 928.33 203.12C940.68 205.21 949.81 209.2 955.71 215.1C964.56 223.96 965.43 231.34 965.22 238.55C965.02 245.75 965.22 240.63 965.22 241.71Z" id="c28DTlDUZv"></path><path d="M967.42 360.32C967.42 358.35 967.42 360.32 967.42 360.32C967.42 358.93 967.28 357.55 966.98 356.19C966.07 351.95 965.61 349.78 965.15 347.67C963.37 339.34 959.59 331.57 954.16 325.01C938.14 305.69 921.62 295.97 904.6 295.85C883.69 295.69 868.02 300.82 857.57 311.21L751.08 311.21C755.77 311.93 758.29 309.77 758.65 304.72C759.01 299.68 757.21 296.72 753.25 295.85L633.74 295.85C538.11 295.84 478.34 295.84 454.43 295.84C450.34 295.84 446.29 296.5 442.41 297.78C428.64 302.35 421.83 311.1 421.98 324.03C422.15 338.39 430.09 346.88 445.82 349.49C447.44 349.76 449.09 349.9 450.74 349.9C466.35 349.9 505.39 349.9 567.84 349.9C565.32 370.23 568.74 387.6 578.11 402.02C587.48 416.43 600.09 425.08 615.95 427.96C619.55 435.89 624.42 443.46 630.54 450.67C636.11 457.21 644.37 462.77 655.33 467.34C657.01 468.04 658.08 469.7 658.04 471.52C658.02 472.15 658.02 472.76 658.02 473.34C658.24 493.99 666.59 504.21 683.06 504C699.6 503.79 708.19 493.89 708.83 474.31C708.88 472.79 710.13 471.58 711.65 471.58C718.61 471.58 736.59 471.58 743.51 471.58C745.31 471.58 746.96 472.59 747.77 474.2C759.44 497.07 778.61 508.5 805.26 508.5C833.09 508.5 853.77 494.24 867.3 465.71C878.62 467.93 887.45 465.47 893.78 458.31C900.12 451.16 902.14 442.05 899.86 430.98C922.47 427.17 939.19 419.86 950 409.05C966.22 392.83 967.8 379.3 967.42 366.11C967.05 352.91 967.42 362.29 967.42 360.32Z" id="b3N36kKVDl"></path><path d="M68.88 649.53C75.89 640.61 87.36 635.83 99.33 635.83C107.31 635.83 113.94 637.74 119.21 641.57L266.4 640.09C270.64 640.65 274.47 642.1 277.87 644.43C281.26 646.77 283.25 650.91 283.81 656.86C289.4 657.71 292.2 661.32 292.2 667.69C292.2 674.06 287.42 678.42 277.87 680.75C287.21 676.29 296.02 674.8 304.31 676.29C312.59 677.78 320.24 682.34 327.25 689.99C339.56 679.58 351.24 675.02 362.29 676.29C373.33 677.56 382.68 682.98 390.32 692.54L498.33 692.54C508.94 693.39 514.25 698.7 514.26 708.47C514.27 718.23 508.96 723.54 498.33 724.39L397.78 724.39C397.06 726.1 395.95 728.54 394.46 731.72C392.98 734.91 390.85 738.1 388.09 741.28C381.08 750.63 371.04 755.3 357.95 755.3C344.87 755.3 334.63 750.62 327.25 741.28C318.33 750.63 308.12 755.3 296.63 755.3C285.14 755.3 277.08 752.43 272.45 746.7L165.09 746.7C171.25 754.34 172.95 761.03 170.19 766.77C167.43 772.5 162.6 775.5 155.72 775.77C149.86 775.08 145.55 773.03 142.79 769.63C140.03 766.24 139.03 761.46 139.79 755.3C125.44 754.45 115.18 749.78 109.02 741.28C102.86 732.79 99.63 724.18 99.33 715.47C87.95 715.26 78.33 711.23 70.47 703.37C58.69 691.58 59.59 681.47 59.51 675.65C59.43 669.84 61.87 658.45 68.88 649.53Z" id="j1iJMcZDgb"></path><path d="M36.12 599.67C40.48 605.22 47.61 608.19 55.06 608.19C60.03 608.19 64.15 607 67.44 604.62L159.01 605.54C161.66 605.19 164.03 604.29 166.15 602.84C168.26 601.38 169.5 598.81 169.85 595.11C173.33 594.58 175.07 592.33 175.07 588.37C175.07 584.4 172.1 581.69 166.15 580.24C171.96 583.02 177.45 583.94 182.6 583.02C187.75 582.09 192.51 579.25 196.87 574.49C204.54 580.97 211.8 583.81 218.68 583.02C225.55 582.22 231.36 578.85 236.12 572.91L303.32 572.91C309.92 572.38 313.23 569.07 313.23 563C313.24 556.92 309.93 553.62 303.32 553.09L240.76 553.09C240.31 552.03 239.62 550.51 238.7 548.53C237.77 546.54 236.45 544.56 234.73 542.58C230.37 536.76 224.12 533.86 215.98 533.86C207.84 533.86 201.47 536.77 196.87 542.58C191.32 536.76 184.97 533.86 177.82 533.86C170.67 533.86 165.66 535.64 162.78 539.21L95.98 539.21C99.81 534.45 100.87 530.29 99.15 526.72C97.43 523.15 94.43 521.29 90.15 521.12C86.5 521.55 83.82 522.82 82.1 524.94C80.39 527.05 79.76 530.03 80.24 533.86C71.31 534.39 64.93 537.29 61.09 542.58C57.26 547.87 55.25 553.22 55.06 558.64C47.98 558.77 42 561.28 37.11 566.17C29.78 573.5 30.34 579.8 30.29 583.41C30.24 587.03 31.76 594.12 36.12 599.67Z" id="aNFXOlBSC"></path><path d="M1169.04 622.57C1164.68 617.02 1157.54 614.05 1150.09 614.05C1145.13 614.05 1141 615.24 1137.72 617.62L1046.14 616.7C1043.5 617.05 1041.12 617.95 1039.01 619.4C1036.89 620.86 1035.66 623.43 1035.31 627.13C1031.83 627.66 1030.09 629.91 1030.09 633.87C1030.09 637.84 1033.06 640.55 1039.01 642C1033.19 639.23 1027.71 638.3 1022.55 639.23C1017.4 640.15 1012.64 642.99 1008.28 647.75C1000.62 641.27 993.35 638.43 986.48 639.22C979.61 640.02 973.79 643.39 969.03 649.33L901.83 649.33C895.23 649.86 891.93 653.17 891.92 659.24C891.92 665.32 895.22 668.63 901.83 669.15L964.4 669.15C964.85 670.21 965.53 671.73 966.46 673.71C967.38 675.7 968.7 677.68 970.42 679.66C974.78 685.48 981.03 688.38 989.17 688.38C997.31 688.38 1003.68 685.47 1008.28 679.66C1013.83 685.48 1020.18 688.38 1027.33 688.38C1034.48 688.38 1039.5 686.6 1042.38 683.03L1109.17 683.03C1105.34 687.79 1104.29 691.95 1106 695.52C1107.72 699.09 1110.72 700.95 1115.01 701.12C1118.65 700.69 1121.33 699.42 1123.05 697.3C1124.77 695.19 1125.39 692.21 1124.92 688.38C1133.85 687.85 1140.23 684.95 1144.06 679.66C1147.89 674.38 1149.9 669.02 1150.09 663.6C1157.17 663.47 1163.16 660.96 1168.05 656.07C1175.38 648.74 1174.82 642.45 1174.87 638.83C1174.92 635.21 1173.4 628.12 1169.04 622.57Z" id="a22owvD4pa"></path><path d="M14.2 95.02C14.2 95.53 14.2 95.53 14.2 95.02C14.2 95.53 14.26 96.04 14.36 96.54C14.7 98.09 14.87 98.89 15.03 99.66C15.69 102.72 17.07 105.57 19.07 107.97C24.94 115.06 31 118.62 37.24 118.67C44.91 118.72 50.65 116.84 54.49 113.03L93.53 113.03C91.82 112.77 90.89 113.56 90.76 115.41C90.63 117.26 91.29 118.35 92.74 118.67L136.57 118.67C171.63 118.67 193.55 118.67 202.32 118.67C203.82 118.67 205.31 118.43 206.73 117.95C211.78 116.28 214.27 113.07 214.22 108.33C214.16 103.07 211.24 99.95 205.48 98.99C204.88 98.89 204.28 98.84 203.67 98.84C197.95 98.84 183.63 98.84 160.73 98.84C161.66 91.39 160.4 85.02 156.96 79.73C153.53 74.45 148.9 71.27 143.09 70.22C141.77 67.31 139.98 64.53 137.74 61.89C135.7 59.49 132.67 57.45 128.65 55.78C128.03 55.52 127.64 54.91 127.66 54.25C127.66 54.01 127.66 53.79 127.66 53.58C127.58 46.01 124.52 42.26 118.48 42.34C112.41 42.41 109.26 46.04 109.03 53.22C109.01 53.78 108.55 54.22 107.99 54.22C105.44 54.22 98.85 54.22 96.31 54.22C95.65 54.22 95.05 53.85 94.75 53.26C90.47 44.88 83.44 40.68 73.67 40.68C63.46 40.68 55.88 45.91 50.92 56.38C46.76 55.56 43.53 56.46 41.21 59.09C38.88 61.71 38.14 65.05 38.98 69.11C30.68 70.51 24.56 73.19 20.59 77.15C14.64 83.1 14.06 88.06 14.2 92.9C14.34 97.74 14.2 94.3 14.2 95.02Z" id="aKOakEwwf"></path><path d="M1194.4 81.16C1194.4 79.62 1194.4 81.16 1194.4 81.16C1194.4 80.08 1194.28 78.99 1194.06 77.93C1193.34 74.62 1192.98 72.92 1192.62 71.27C1191.23 64.75 1188.27 58.67 1184.02 53.54C1171.49 38.42 1158.56 30.82 1145.24 30.72C1128.89 30.6 1116.63 34.61 1108.45 42.74L1025.14 42.74C1028.8 43.3 1030.78 41.61 1031.06 37.67C1031.34 33.72 1029.93 31.4 1026.83 30.72L933.33 30.72C858.51 30.72 811.75 30.72 793.04 30.72C789.84 30.72 786.67 31.23 783.63 32.24C772.86 35.81 767.54 42.65 767.65 52.77C767.78 64 774 70.65 786.3 72.69C787.57 72.9 788.86 73.01 790.15 73.01C802.37 73.01 832.91 73.01 881.77 73.01C879.8 88.92 882.48 102.51 889.81 113.79C897.14 125.07 907.01 131.83 919.41 134.09C922.23 140.29 926.04 146.21 930.83 151.85C935.18 156.97 941.65 161.32 950.22 164.9C951.53 165.45 952.37 166.74 952.34 168.16C952.33 168.66 952.32 169.13 952.33 169.59C952.5 185.74 959.03 193.74 971.92 193.58C984.86 193.41 991.58 185.67 992.08 170.35C992.12 169.16 993.1 168.22 994.29 168.22C999.73 168.22 1013.8 168.22 1019.21 168.22C1020.62 168.22 1021.91 169 1022.55 170.26C1031.68 188.15 1046.67 197.1 1067.53 197.1C1089.3 197.1 1105.48 185.94 1116.06 163.62C1124.92 165.36 1131.83 163.43 1136.79 157.83C1141.74 152.23 1143.32 145.1 1141.54 136.45C1159.23 133.46 1172.31 127.74 1180.77 119.29C1193.45 106.6 1194.69 96.02 1194.4 85.69C1194.11 75.37 1194.4 82.7 1194.4 81.16Z" id="h24ytpIuJy"></path><path d="M18.86 356.41C18.86 357.35 18.86 356.41 18.86 356.41C18.86 357.07 18.93 357.73 19.07 358.38C19.51 360.41 19.73 361.44 19.95 362.45C20.8 366.43 22.6 370.14 25.2 373.28C32.85 382.51 40.74 387.15 48.87 387.21C58.86 387.28 66.35 384.83 71.34 379.87L122.21 379.87C119.97 379.53 118.76 380.56 118.59 382.97C118.42 385.38 119.28 386.79 121.17 387.21L178.26 387.21C223.94 387.21 252.49 387.21 263.91 387.21C265.86 387.21 267.8 386.9 269.66 386.28C276.23 384.1 279.48 379.92 279.41 373.75C279.33 366.89 275.54 362.83 268.03 361.58C267.25 361.45 266.46 361.39 265.68 361.39C258.22 361.39 239.57 361.39 209.74 361.39C210.94 351.68 209.31 343.38 204.83 336.49C200.36 329.61 194.33 325.47 186.76 324.1C185.04 320.31 182.71 316.69 179.79 313.25C177.13 310.13 173.18 307.47 167.95 305.29C167.15 304.95 166.63 304.16 166.65 303.29C166.66 302.99 166.66 302.7 166.66 302.42C166.56 292.56 162.57 287.68 154.7 287.78C146.8 287.88 142.69 292.6 142.39 301.96C142.36 302.68 141.77 303.26 141.04 303.26C137.72 303.26 129.13 303.26 125.82 303.26C124.96 303.26 124.18 302.78 123.79 302.01C118.21 291.09 109.06 285.62 96.32 285.62C83.03 285.62 73.15 292.44 66.69 306.07C61.28 305 57.06 306.18 54.04 309.6C51.01 313.02 50.05 317.37 51.14 322.66C40.33 324.48 32.35 327.97 27.19 333.13C19.44 340.88 18.68 347.34 18.86 353.65C19.04 359.95 18.86 355.47 18.86 356.41Z" id="a78mB7niBB"></path><path d="M639.5 74.8C632.96 66.47 622.26 62.01 611.08 62.01C603.63 62.01 597.44 63.8 592.52 67.37L455.14 65.99C451.18 66.51 447.61 67.86 444.44 70.04C441.26 72.22 439.41 76.09 438.89 81.64C433.66 82.43 431.05 85.8 431.05 91.75C431.05 97.7 435.51 101.76 444.44 103.94C435.71 99.78 427.49 98.39 419.75 99.78C412.02 101.17 404.89 105.43 398.34 112.56C386.85 102.85 375.94 98.59 365.64 99.78C355.33 100.96 346.6 106.02 339.47 114.94L238.65 114.94C228.75 115.74 223.79 120.69 223.79 129.81C223.78 138.93 228.74 143.88 238.65 144.68L332.51 144.68C333.18 146.26 334.21 148.54 335.6 151.52C336.99 154.49 338.97 157.47 341.55 160.44C348.09 169.16 357.47 173.52 369.68 173.52C381.89 173.52 391.45 169.16 398.34 160.44C406.67 169.16 416.2 173.52 426.92 173.52C437.65 173.52 445.17 170.84 449.49 165.49L549.7 165.49C543.95 172.63 542.36 178.87 544.94 184.23C547.52 189.58 552.02 192.38 558.45 192.63C563.92 191.98 567.94 190.08 570.51 186.9C573.09 183.73 574.03 179.27 573.32 173.52C586.71 172.73 596.29 168.37 602.03 160.44C607.78 152.51 610.8 144.48 611.08 136.35C621.7 136.15 630.68 132.39 638.02 125.05C649.02 114.05 648.18 104.61 648.25 99.18C648.33 93.75 646.04 83.13 639.5 74.8Z" id="a5ri76lf5"></path><path d="M50.95 321.81C60.1 333.46 75.08 339.7 90.71 339.7C101.13 339.7 109.79 337.21 116.68 332.21L308.86 334.14C314.4 333.41 319.4 331.52 323.83 328.47C328.27 325.42 330.86 320.01 331.59 312.24C338.9 311.14 342.55 306.42 342.55 298.1C342.55 289.78 336.31 284.1 323.83 281.05C336.03 286.87 347.54 288.81 358.36 286.87C369.17 284.93 379.16 278.97 388.31 268.98C404.39 282.57 419.65 288.54 434.07 286.87C448.49 285.21 460.69 278.14 470.67 265.66L611.7 265.66C625.56 264.55 632.49 257.61 632.5 244.86C632.51 232.1 625.58 225.17 611.7 224.06L480.4 224.06C479.46 221.84 478.02 218.65 476.08 214.49C474.14 210.33 471.37 206.17 467.76 202.01C458.61 189.81 445.49 183.71 428.41 183.71C411.32 183.71 397.96 189.81 388.31 202.01C376.66 189.81 363.34 183.71 348.33 183.71C333.33 183.71 322.8 187.46 316.76 194.94L176.58 194.94C184.62 184.96 186.84 176.22 183.23 168.73C179.63 161.25 173.33 157.33 164.34 156.98C156.69 157.88 151.06 160.55 147.46 164.99C143.85 169.43 142.55 175.67 143.54 183.71C124.8 184.82 111.41 190.92 103.37 202.01C95.32 213.1 91.11 224.34 90.71 235.71C75.85 235.98 63.29 241.25 53.03 251.51C37.64 266.9 38.82 280.11 38.71 287.7C38.61 295.3 41.8 310.17 50.95 321.81Z" id="anNe0zPO"></path><path d="M36.34 459.99C36.34 460.52 36.34 459.99 36.34 459.99C36.34 460.37 36.38 460.74 36.46 461.1C36.7 462.24 36.83 462.82 36.95 463.39C37.43 465.62 38.44 467.71 39.9 469.47C44.2 474.65 48.63 477.26 53.2 477.29C58.8 477.33 63.01 475.96 65.81 473.17L94.38 473.17C93.12 472.98 92.45 473.56 92.35 474.91C92.25 476.26 92.74 477.06 93.8 477.29L125.86 477.29C151.51 477.29 167.55 477.29 173.96 477.29C175.06 477.29 176.15 477.12 177.19 476.77C180.88 475.55 182.71 473.2 182.67 469.73C182.62 465.88 180.49 463.6 176.27 462.9C175.84 462.83 175.4 462.79 174.95 462.79C170.76 462.79 160.29 462.79 143.54 462.79C144.21 457.33 143.3 452.67 140.78 448.81C138.27 444.94 134.89 442.62 130.63 441.85C129.67 439.72 128.36 437.69 126.72 435.76C125.22 434 123.01 432.51 120.07 431.28C119.62 431.09 119.33 430.65 119.34 430.16C119.34 430.16 119.34 430 119.35 429.67C119.29 424.13 117.05 421.39 112.63 421.45C108.19 421.5 105.89 424.16 105.71 429.41C105.7 429.82 105.37 430.14 104.96 430.14C103.09 430.14 98.27 430.14 96.41 430.14C95.93 430.14 95.49 429.87 95.27 429.44C92.14 423.31 87 420.24 79.84 420.24C72.38 420.24 66.83 424.07 63.2 431.72C60.16 431.12 57.79 431.79 56.1 433.7C54.4 435.62 53.85 438.07 54.47 441.04C48.4 442.06 43.92 444.02 41.01 446.92C36.66 451.27 36.24 454.9 36.34 458.44C36.44 461.98 36.34 459.47 36.34 459.99Z" id="a2CExuZS2x"></path><path d="M399.5 423.35C399.5 422.82 399.5 423.35 399.5 423.35C399.5 422.98 399.46 422.6 399.38 422.24C399.14 421.1 399.01 420.52 398.89 419.95C398.41 417.72 397.4 415.63 395.94 413.88C391.64 408.69 387.21 406.08 382.64 406.05C377.04 406.01 372.83 407.38 370.03 410.17L341.46 410.17C342.72 410.37 343.39 409.79 343.49 408.43C343.59 407.08 343.1 406.29 342.04 406.05L309.98 406.05C284.32 406.05 268.29 406.05 261.88 406.05C260.78 406.05 259.69 406.23 258.65 406.57C254.96 407.8 253.13 410.14 253.17 413.61C253.21 417.46 255.35 419.74 259.56 420.44C260 420.52 260.44 420.55 260.89 420.55C265.07 420.55 275.55 420.55 292.3 420.55C291.62 426.01 292.54 430.67 295.06 434.53C297.57 438.4 300.95 440.72 305.21 441.5C306.17 443.62 307.48 445.65 309.12 447.59C310.61 449.34 312.83 450.83 315.77 452.06C316.22 452.25 316.51 452.69 316.5 453.18C316.5 453.18 316.5 453.34 316.49 453.67C316.55 459.21 318.79 461.95 323.21 461.89C327.65 461.84 329.95 459.18 330.12 453.93C330.14 453.52 330.47 453.2 330.88 453.2C332.75 453.2 337.57 453.2 339.43 453.2C339.91 453.2 340.35 453.47 340.57 453.9C343.7 460.03 348.84 463.1 355.99 463.1C363.46 463.1 369.01 459.28 372.64 451.62C375.68 452.22 378.04 451.56 379.74 449.64C381.44 447.72 381.98 445.27 381.37 442.3C387.44 441.28 391.92 439.32 394.82 436.42C399.17 432.07 399.6 428.44 399.5 424.9C399.4 421.36 399.5 423.88 399.5 423.35Z" id="ciOJoN0a2"></path><path d="M584.14 623.61C584.14 624.33 584.14 623.61 584.14 623.61C584.14 624.12 584.08 624.62 583.98 625.12C583.65 626.67 583.48 627.46 583.31 628.23C582.66 631.27 581.28 634.11 579.29 636.51C573.44 643.56 567.41 647.11 561.19 647.16C553.56 647.22 547.83 645.34 544.01 641.55L505.12 641.55C506.83 641.29 507.75 642.08 507.88 643.92C508.02 645.76 507.36 646.84 505.91 647.16L462.26 647.16C427.33 647.16 405.5 647.16 396.77 647.16C395.28 647.16 393.79 646.92 392.38 646.45C387.35 644.78 384.86 641.59 384.92 636.87C384.98 631.62 387.88 628.52 393.62 627.57C394.22 627.47 394.82 627.42 395.42 627.42C401.12 627.42 415.38 627.42 438.19 627.42C437.27 619.99 438.52 613.65 441.94 608.38C445.36 603.12 449.97 599.96 455.76 598.9C457.08 596.01 458.86 593.24 461.09 590.61C463.13 588.22 466.14 586.19 470.15 584.52C470.76 584.26 471.15 583.66 471.13 583C471.13 582.77 471.13 582.54 471.13 582.33C471.21 574.79 474.26 571.06 480.27 571.13C486.32 571.21 489.46 574.82 489.69 581.97C489.71 582.53 490.16 582.97 490.72 582.97C493.26 582.97 499.83 582.97 502.35 582.97C503.01 582.97 503.61 582.6 503.91 582.02C508.17 573.66 515.17 569.49 524.91 569.49C535.07 569.49 542.63 574.7 547.57 585.12C551.7 584.31 554.93 585.21 557.24 587.82C559.55 590.43 560.29 593.76 559.46 597.8C567.72 599.19 573.83 601.87 577.77 605.81C583.7 611.74 584.27 616.68 584.14 621.5C584 626.32 584.14 622.89 584.14 623.61Z" id="f1EO6GawK9"></path><path d="M597.51 457.16C592.42 450.69 584.1 447.22 575.41 447.22C569.61 447.22 564.8 448.61 560.97 451.38L454.15 450.31C451.07 450.72 448.3 451.77 445.83 453.46C443.36 455.16 441.93 458.16 441.52 462.48C437.46 463.1 435.43 465.72 435.43 470.34C435.43 474.97 438.89 478.13 445.83 479.82C439.05 476.58 432.65 475.5 426.64 476.58C420.63 477.66 415.08 480.98 409.99 486.53C401.05 478.97 392.57 475.66 384.56 476.58C376.54 477.51 369.76 481.44 364.21 488.37L285.82 488.37C278.12 488.99 274.27 492.85 274.26 499.93C274.26 507.02 278.11 510.88 285.82 511.5L358.8 511.5C359.33 512.73 360.13 514.5 361.21 516.81C362.29 519.13 363.83 521.44 365.83 523.75C370.92 530.53 378.21 533.92 387.7 533.92C397.2 533.92 404.63 530.53 409.99 523.75C416.47 530.53 423.87 533.92 432.21 533.92C440.55 533.92 446.4 531.84 449.76 527.68L527.68 527.68C523.21 533.23 521.98 538.09 523.98 542.25C525.98 546.41 529.48 548.59 534.48 548.78C538.73 548.28 541.86 546.8 543.86 544.33C545.87 541.86 546.59 538.39 546.04 533.92C556.46 533.31 563.9 529.92 568.37 523.75C572.84 517.59 575.19 511.34 575.41 505.02C583.67 504.87 590.65 501.94 596.35 496.24C604.9 487.68 604.25 480.34 604.31 476.12C604.37 471.9 602.59 463.64 597.51 457.16Z" id="a2KzhP2XI"></path><path d="M627.27 648.03C631.63 653.58 638.76 656.55 646.21 656.55C651.18 656.56 655.3 655.37 658.59 652.99L750.16 653.9C752.8 653.56 755.18 652.65 757.3 651.2C759.41 649.75 760.64 647.17 761 643.47C764.48 642.94 766.22 640.7 766.22 636.73C766.22 632.77 763.24 630.06 757.3 628.6C763.11 631.38 768.6 632.3 773.75 631.38C778.9 630.45 783.66 627.61 788.02 622.86C795.69 629.33 802.95 632.17 809.83 631.38C816.7 630.59 822.51 627.22 827.27 621.27L894.47 621.27C901.07 620.74 904.38 617.44 904.38 611.36C904.39 605.28 901.08 601.98 894.47 601.45L831.91 601.45C831.46 600.39 830.77 598.87 829.85 596.89C828.92 594.91 827.6 592.93 825.88 590.94C821.52 585.13 815.27 582.22 807.13 582.22C798.99 582.22 792.62 585.13 788.02 590.94C782.47 585.13 776.12 582.22 768.97 582.22C761.82 582.22 756.81 584.01 753.93 587.57L687.13 587.57C690.96 582.82 692.02 578.65 690.3 575.09C688.58 571.52 685.58 569.65 681.3 569.49C677.65 569.92 674.97 571.19 673.25 573.3C671.54 575.42 670.91 578.39 671.39 582.22C662.46 582.75 656.07 585.66 652.24 590.94C648.41 596.23 646.4 601.58 646.21 607C639.13 607.13 633.15 609.64 628.26 614.53C620.92 621.87 621.48 628.16 621.43 631.78C621.39 635.39 622.91 642.48 627.27 648.03Z" id="dHU4aB9FF"></path><path d="M1035.82 516.67C1032.05 521.47 1025.88 524.04 1019.44 524.04C1015.15 524.04 1011.58 523.01 1008.74 520.95L929.57 521.75C927.29 521.45 925.23 520.67 923.4 519.41C921.57 518.15 920.51 515.93 920.2 512.73C917.2 512.27 915.69 510.33 915.69 506.9C915.69 503.47 918.26 501.13 923.4 499.88C918.38 502.27 913.63 503.07 909.18 502.27C904.72 501.47 900.61 499.02 896.84 494.91C890.21 500.5 883.93 502.96 877.99 502.28C872.05 501.59 867.02 498.68 862.91 493.54L804.81 493.54C799.1 493.08 796.24 490.22 796.24 484.97C796.24 479.71 799.09 476.86 804.81 476.4L858.9 476.4C859.29 475.48 859.88 474.17 860.68 472.46C861.48 470.74 862.62 469.03 864.11 467.32C867.88 462.29 873.28 459.78 880.32 459.78C887.36 459.78 892.86 462.29 896.84 467.32C901.64 462.29 907.13 459.78 913.31 459.78C919.49 459.78 923.83 461.32 926.32 464.4L984.07 464.4C980.75 460.29 979.84 456.69 981.32 453.61C982.81 450.52 985.4 448.91 989.11 448.77C992.26 449.14 994.58 450.24 996.06 452.06C997.55 453.89 998.09 456.46 997.68 459.78C1005.4 460.23 1010.91 462.75 1014.23 467.32C1017.54 471.89 1019.28 476.51 1019.44 481.2C1025.56 481.31 1030.74 483.48 1034.96 487.71C1041.3 494.05 1040.82 499.49 1040.86 502.62C1040.9 505.75 1039.59 511.87 1035.82 516.67Z" id="bKn14x9dL"></path><path d="M1114.32 772.01C1107.31 780.93 1095.85 785.71 1083.87 785.71C1075.89 785.71 1069.27 783.8 1063.99 779.98L916.81 781.45C912.56 780.89 908.74 779.45 905.34 777.11C901.94 774.77 899.96 770.63 899.39 764.69C893.8 763.84 891 760.23 891 753.85C891 747.48 895.78 743.13 905.34 740.79C895.99 745.25 887.18 746.74 878.9 745.25C870.61 743.77 862.97 739.2 855.96 731.55C843.64 741.96 831.96 746.53 820.91 745.25C809.87 743.98 800.53 738.57 792.88 729.01L684.87 729.01C674.26 728.16 668.95 722.85 668.94 713.08C668.94 703.31 674.25 698 684.87 697.15L785.43 697.15C786.15 695.45 787.25 693.01 788.74 689.82C790.23 686.63 792.35 683.45 795.11 680.26C802.12 670.92 812.16 666.25 825.25 666.25C838.33 666.25 848.57 670.92 855.96 680.26C864.88 670.92 875.08 666.25 886.57 666.25C898.07 666.25 906.13 669.12 910.75 674.85L1018.11 674.85C1011.95 667.2 1010.26 660.51 1013.02 654.78C1015.78 649.04 1020.6 646.04 1027.49 645.78C1033.34 646.47 1037.65 648.51 1040.41 651.91C1043.17 655.31 1044.18 660.09 1043.42 666.25C1057.77 667.1 1068.02 671.77 1074.18 680.26C1080.34 688.76 1083.57 697.36 1083.87 706.07C1095.25 706.28 1104.87 710.32 1112.73 718.17C1124.52 729.96 1123.62 740.08 1123.7 745.89C1123.78 751.71 1121.33 763.09 1114.32 772.01Z" id="b1vcwQ4o6k"></path></defs><g><g><g><g><use xlink:href="#b3L9NBas2" opacity="0.3" fill="#ffffff" fill-opacity="0.25"></use></g><g><use xlink:href="#d3igZstx6q" opacity="0.3" fill="#ffffff" fill-opacity="0.25"></use></g><g><use xlink:href="#ffFR6Gvo9" opacity="0.3" fill="#ffffff" fill-opacity="0.25"></use></g><g><use xlink:href="#bA6un3lao" opacity="0.3" fill="#ffffff" fill-opacity="0.2"></use></g><g><use xlink:href="#awTNEA6y" opacity="0.3" fill="#ffffff" fill-opacity="0.2"></use></g><g><use xlink:href="#f5wNEjTMQM" opacity="0.3" fill="#ffffff" fill-opacity="0.2"></use></g><g><use xlink:href="#afkyrT2dc" opacity="0.3" fill="#ffffff" fill-opacity="0.25"></use></g><g><use xlink:href="#h5hWKxoJW" opacity="0.3" fill="#ffffff" fill-opacity="0.25"></use></g></g><g><g><use xlink:href="#b2CcAs3CBf" opacity="1" fill="#ffffff" fill-opacity="0.2"></use></g><g><use xlink:href="#cTVS0uY5P" opacity="1" fill="#ffffff" fill-opacity="0.2"></use></g><g><use xlink:href="#c28DTlDUZv" opacity="1" fill="#ffffff" fill-opacity="0.2"></use></g></g><g><g><use xlink:href="#b3N36kKVDl" opacity="0.75" fill="#ffffff" fill-opacity="0.2"></use></g><g><use xlink:href="#j1iJMcZDgb" opacity="0.75" fill="#ffffff" fill-opacity="0.25"></use></g><g><use xlink:href="#aNFXOlBSC" opacity="0.75" fill="#ffffff" fill-opacity="0.25"></use></g><g><use xlink:href="#a22owvD4pa" opacity="0.75" fill="#ffffff" fill-opacity="0.25"></use></g><g><use xlink:href="#aKOakEwwf" opacity="0.75" fill="#ffffff" fill-opacity="0.2"></use></g><g><use xlink:href="#h24ytpIuJy" opacity="0.75" fill="#ffffff" fill-opacity="0.2"></use></g><g><use xlink:href="#a78mB7niBB" opacity="0.75" fill="#ffffff" fill-opacity="0.2"></use></g><g><use xlink:href="#a5ri76lf5" opacity="0.75" fill="#ffffff" fill-opacity="0.25"></use></g><g><use xlink:href="#anNe0zPO" opacity="0.75" fill="#ffffff" fill-opacity="0.25"></use></g></g><g><g><use xlink:href="#a2CExuZS2x" opacity="1" fill="#ffffff" fill-opacity="0.2"></use></g><g><use xlink:href="#ciOJoN0a2" opacity="1" fill="#ffffff" fill-opacity="0.2"></use></g><g><use xlink:href="#f1EO6GawK9" opacity="1" fill="#ffffff" fill-opacity="0.2"></use></g></g><g><use xlink:href="#a2KzhP2XI" opacity="0.75" fill="#ffffff" fill-opacity="0.25"></use></g><g><use xlink:href="#dHU4aB9FF" opacity="0.75" fill="#ffffff" fill-opacity="0.25"></use></g><g><use xlink:href="#bKn14x9dL" opacity="0.75" fill="#ffffff" fill-opacity="0.25"></use></g><g><use xlink:href="#b1vcwQ4o6k" opacity="0.75" fill="#ffffff" fill-opacity="0.25"></use></g></g></g></svg>