<?xml version="1.0" encoding="UTF-8" standalone="no"?>
<!DOCTYPE svg PUBLIC "-//W3C//DTD SVG 1.1//EN" "http://www.w3.org/Graphics/SVG/1.1/DTD/svg11.dtd">
<svg version="1.1" xmlns="http://www.w3.org/2000/svg" xmlns:xlink="http://www.w3.org/1999/xlink" preserveAspectRatio="xMidYMid meet" viewBox="0 0 1200 800" width="1200" height="800"><defs><path d="M106.01 84.53C106.01 110.15 85.21 130.96 59.58 130.96C33.96 130.96 13.16 110.15 13.16 84.53C13.16 58.91 33.96 38.11 59.58 38.11C85.21 38.11 106.01 58.91 106.01 84.53Z" id="a1FX3LzAMz"></path><path d="M422.57 84.53C422.57 110.15 401.77 130.96 376.15 130.96C350.53 130.96 329.72 110.15 329.72 84.53C329.72 58.91 350.53 38.11 376.15 38.11C401.77 38.11 422.57 58.91 422.57 84.53Z" id="h1zKhc6zA7"></path><path d="M476.68 84.53C476.68 110.15 455.88 130.96 430.26 130.96C404.63 130.96 383.83 110.15 383.83 84.53C383.83 58.91 404.63 38.11 430.26 38.11C455.88 38.11 476.68 58.91 476.68 84.53Z" id="bE4eQjo3W"></path><path d="M340.5 84.53C340.5 110.15 319.7 130.96 294.07 130.96C268.45 130.96 247.65 110.15 247.65 84.53C247.65 58.91 268.45 38.11 294.07 38.11C319.7 38.11 340.5 58.91 340.5 84.53Z" id="d1L7PuRuFW"></path><path d="M344.04 143.86C344.04 169.48 323.24 190.28 297.62 190.28C272 190.28 251.2 169.48 251.2 143.86C251.2 118.23 272 97.43 297.62 97.43C323.24 97.43 344.04 118.23 344.04 143.86Z" id="d1m6XLr4rs"></path><path d="M259.34 84.53C259.34 110.15 238.54 130.96 212.92 130.96C187.3 130.96 166.49 110.15 166.49 84.53C166.49 58.91 187.3 38.11 212.92 38.11C238.54 38.11 259.34 58.91 259.34 84.53Z" id="h2io4N3KjQ"></path><path d="M187.51 84.53C187.51 110.15 166.71 130.96 141.08 130.96C115.46 130.96 94.66 110.15 94.66 84.53C94.66 58.91 115.46 38.11 141.08 38.11C166.71 38.11 187.51 58.91 187.51 84.53Z" id="cagjXBTKC"></path><path d="M285.28 190.28C285.28 215.9 264.48 236.7 238.86 236.7C213.24 236.7 192.43 215.9 192.43 190.28C192.43 164.66 213.24 143.86 238.86 143.86C264.48 143.86 285.28 164.66 285.28 190.28Z" id="d1pilGz1Xq"></path><path d="M144.04 143.86C144.04 169.48 123.24 190.28 97.62 190.28C72 190.28 51.2 169.48 51.2 143.86C51.2 118.23 72 97.43 97.62 97.43C123.24 97.43 144.04 118.23 144.04 143.86Z" id="atx9eNfhG"></path><path d="M111.28 271.2C111.28 296.83 90.48 317.63 64.86 317.63C39.23 317.63 18.43 296.83 18.43 271.2C18.43 245.58 39.23 224.78 64.86 224.78C90.48 224.78 111.28 245.58 111.28 271.2Z" id="brRrzHc9S"></path><path d="M136.43 271.2C136.43 296.83 115.63 317.63 90.01 317.63C64.38 317.63 43.58 296.83 43.58 271.2C43.58 245.58 64.38 224.78 90.01 224.78C115.63 224.78 136.43 245.58 136.43 271.2Z" id="dWi2ozknz"></path><path d="M493.9 344.78C493.9 370.4 473.1 391.2 447.48 391.2C421.86 391.2 401.05 370.4 401.05 344.78C401.05 319.15 421.86 298.35 447.48 298.35C473.1 298.35 493.9 319.15 493.9 344.78Z" id="aBQiL0iaE"></path><path d="M652.81 343.85C652.81 369.47 632.01 390.27 606.39 390.27C580.76 390.27 559.96 369.47 559.96 343.85C559.96 318.23 580.76 297.43 606.39 297.43C632.01 297.43 652.81 318.23 652.81 343.85Z" id="h6dwhBXSf"></path><path d="M637.97 318.6C637.97 344.22 617.17 365.02 591.55 365.02C565.93 365.02 545.12 344.22 545.12 318.6C545.12 292.98 565.93 272.18 591.55 272.18C617.17 272.18 637.97 292.98 637.97 318.6Z" id="a606UJJYil"></path><path d="M514.2 318.6C514.2 344.22 493.4 365.02 467.77 365.02C442.15 365.02 421.35 344.22 421.35 318.6C421.35 292.98 442.15 272.18 467.77 272.18C493.4 272.18 514.2 292.98 514.2 318.6Z" id="avGg21my6"></path><path d="M597.19 463.39C597.19 489.02 576.39 509.82 550.77 509.82C525.15 509.82 504.35 489.02 504.35 463.39C504.35 437.77 525.15 416.97 550.77 416.97C576.39 416.97 597.19 437.77 597.19 463.39Z" id="aoCccmMJs"></path><path d="M711.97 463.39C711.97 489.02 691.17 509.82 665.55 509.82C639.93 509.82 619.13 489.02 619.13 463.39C619.13 437.77 639.93 416.97 665.55 416.97C691.17 416.97 711.97 437.77 711.97 463.39Z" id="at6I69Qxk"></path><path d="M684.4 520.88C684.4 546.5 663.59 567.3 637.97 567.3C612.35 567.3 591.55 546.5 591.55 520.88C591.55 495.26 612.35 474.45 637.97 474.45C663.59 474.45 684.4 495.26 684.4 520.88Z" id="f34AIObYR9"></path><path d="M673.69 575.14C673.69 600.77 652.89 621.57 627.27 621.57C601.65 621.57 580.85 600.77 580.85 575.14C580.85 549.52 601.65 528.72 627.27 528.72C652.89 528.72 673.69 549.52 673.69 575.14Z" id="bntbEWagW"></path><path d="M616.57 575.14C616.57 600.77 595.77 621.57 570.15 621.57C544.52 621.57 523.72 600.77 523.72 575.14C523.72 549.52 544.52 528.72 570.15 528.72C595.77 528.72 616.57 549.52 616.57 575.14Z" id="mDYqgNNm"></path><path d="M607.05 520.88C607.05 546.5 586.24 567.3 560.62 567.3C535 567.3 514.2 546.5 514.2 520.88C514.2 495.26 535 474.45 560.62 474.45C586.24 474.45 607.05 495.26 607.05 520.88Z" id="buKqsQFn1"></path><path d="M627.27 628.06C627.27 653.68 606.47 674.48 580.85 674.48C555.22 674.48 534.42 653.68 534.42 628.06C534.42 602.44 555.22 581.64 580.85 581.64C606.47 581.64 627.27 602.44 627.27 628.06Z" id="b2aab10Ncd"></path><path d="M648.82 626.68C648.82 652.3 628.01 673.1 602.39 673.1C576.77 673.1 555.97 652.3 555.97 626.68C555.97 601.06 576.77 580.26 602.39 580.26C628.01 580.26 648.82 601.06 648.82 626.68Z" id="m1BJzE25Jj"></path><path d="M283.59 451.01C283.59 476.63 262.79 497.44 237.16 497.44C211.54 497.44 190.74 476.63 190.74 451.01C190.74 425.39 211.54 404.59 237.16 404.59C262.79 404.59 283.59 425.39 283.59 451.01Z" id="bq2v0CwF"></path><path d="M227.84 464.83C227.84 490.45 207.04 511.25 181.42 511.25C155.8 511.25 134.99 490.45 134.99 464.83C134.99 439.21 155.8 418.41 181.42 418.41C207.04 418.41 227.84 439.21 227.84 464.83Z" id="a1F2Nj9WrQ"></path><path d="M221.28 490.6C221.28 516.22 200.48 537.02 174.85 537.02C149.23 537.02 128.43 516.22 128.43 490.6C128.43 464.98 149.23 444.17 174.85 444.17C200.48 444.17 221.28 464.98 221.28 490.6Z" id="gD7i47QMg"></path><path d="M342.03 573.36C342.03 598.98 321.23 619.79 295.61 619.79C269.99 619.79 249.19 598.98 249.19 573.36C249.19 547.74 269.99 526.94 295.61 526.94C321.23 526.94 342.03 547.74 342.03 573.36Z" id="e1ddJHbIgH"></path><path d="M321.68 492.49C321.68 518.12 300.88 538.92 275.26 538.92C249.63 538.92 228.83 518.12 228.83 492.49C228.83 466.87 249.63 446.07 275.26 446.07C300.88 446.07 321.68 466.87 321.68 492.49Z" id="b6UOn57ST"></path><path d="M285.28 624.44C285.28 650.06 264.48 670.86 238.86 670.86C213.24 670.86 192.43 650.06 192.43 624.44C192.43 598.82 213.24 578.02 238.86 578.02C264.48 578.02 285.28 598.82 285.28 624.44Z" id="alGMNArW5"></path><path d="M279.64 573.36C279.64 598.98 258.84 619.79 233.21 619.79C207.59 619.79 186.79 598.98 186.79 573.36C186.79 547.74 207.59 526.94 233.21 526.94C258.84 526.94 279.64 547.74 279.64 573.36Z" id="b27I3Uo2H"></path><path d="M315.82 624.44C315.82 650.06 295.02 670.86 269.4 670.86C243.77 670.86 222.97 650.06 222.97 624.44C222.97 598.82 243.77 578.02 269.4 578.02C295.02 578.02 315.82 598.82 315.82 624.44Z" id="b3YwcVgsvc"></path><path d="M291.79 674.48C291.79 700.11 270.99 720.91 245.37 720.91C219.74 720.91 198.94 700.11 198.94 674.48C198.94 648.86 219.74 628.06 245.37 628.06C270.99 628.06 291.79 648.86 291.79 674.48Z" id="aIacntHNq"></path><path d="M297.62 676.81C297.62 702.43 276.82 723.23 251.2 723.23C225.57 723.23 204.77 702.43 204.77 676.81C204.77 651.19 225.57 630.39 251.2 630.39C276.82 630.39 297.62 651.19 297.62 676.81Z" id="bTU0eCT8Q"></path><path d="M592.8 183.95C592.8 209.57 572 230.38 546.37 230.38C520.75 230.38 499.95 209.57 499.95 183.95C499.95 158.33 520.75 137.53 546.37 137.53C572 137.53 592.8 158.33 592.8 183.95Z" id="aOlwzSPwd"></path><path d="M663.91 221.53C663.91 247.16 643.11 267.96 617.49 267.96C591.87 267.96 571.07 247.16 571.07 221.53C571.07 195.91 591.87 175.11 617.49 175.11C643.11 175.11 663.91 195.91 663.91 221.53Z" id="cqUQO1fwM"></path><path d="M798.46 330.04C798.46 355.66 777.66 376.46 752.03 376.46C726.41 376.46 705.61 355.66 705.61 330.04C705.61 304.42 726.41 283.62 752.03 283.62C777.66 283.62 798.46 304.42 798.46 330.04Z" id="dg5JZDoGW"></path><path d="M804.82 330.04C804.82 355.66 784.02 376.46 758.4 376.46C732.78 376.46 711.97 355.66 711.97 330.04C711.97 304.42 732.78 283.62 758.4 283.62C784.02 283.62 804.82 304.42 804.82 330.04Z" id="d18bLA1ln9"></path><path d="M787.69 84.53C787.69 110.15 766.88 130.96 741.26 130.96C715.64 130.96 694.84 110.15 694.84 84.53C694.84 58.91 715.64 38.11 741.26 38.11C766.88 38.11 787.69 58.91 787.69 84.53Z" id="d7YcQBXebq"></path><path d="M1015.54 84.53C1015.54 110.15 994.74 130.96 969.12 130.96C943.49 130.96 922.69 110.15 922.69 84.53C922.69 58.91 943.49 38.11 969.12 38.11C994.74 38.11 1015.54 58.91 1015.54 84.53Z" id="c1sWBGRI8l"></path><path d="M1143.91 691.35C1143.91 716.97 1123.11 737.77 1097.49 737.77C1071.86 737.77 1051.06 716.97 1051.06 691.35C1051.06 665.72 1071.86 644.92 1097.49 644.92C1123.11 644.92 1143.91 665.72 1143.91 691.35Z" id="byPNiQyHJ"></path><path d="M1120.8 691.35C1120.8 716.97 1100 737.77 1074.37 737.77C1048.75 737.77 1027.95 716.97 1027.95 691.35C1027.95 665.72 1048.75 644.92 1074.37 644.92C1100 644.92 1120.8 665.72 1120.8 691.35Z" id="cru2ZbnDy"></path><path d="M525.7 400.04C525.7 436.82 495.84 466.69 459.05 466.69C422.27 466.69 392.4 436.82 392.4 400.04C392.4 363.25 422.27 333.39 459.05 333.39C495.84 333.39 525.7 363.25 525.7 400.04Z" id="bkwLSZpkt"></path><path d="M696.56 398.18C696.56 434.97 666.69 464.83 629.91 464.83C593.13 464.83 563.26 434.97 563.26 398.18C563.26 361.4 593.13 331.53 629.91 331.53C666.69 331.53 696.56 361.4 696.56 398.18Z" id="egXApmDOn"></path><path d="M224.84 222.63C224.84 259.41 194.97 289.27 158.19 289.27C121.4 289.27 91.54 259.41 91.54 222.63C91.54 185.84 121.4 155.98 158.19 155.98C194.97 155.98 224.84 185.84 224.84 222.63Z" id="f1qaOzNLNt"></path><path d="M141.08 221.53C141.08 258.32 111.22 288.18 74.44 288.18C37.65 288.18 7.79 258.32 7.79 221.53C7.79 184.75 37.65 154.89 74.44 154.89C111.22 154.89 141.08 184.75 141.08 221.53Z" id="aKkDiD1AG"></path><path d="M365.36 519.58C365.36 556.37 335.49 586.23 298.71 586.23C261.92 586.23 232.06 556.37 232.06 519.58C232.06 482.8 261.92 452.94 298.71 452.94C335.49 452.94 365.36 482.8 365.36 519.58Z" id="euHi1QZJo"></path><path d="M275.26 521.91C275.26 558.7 245.39 588.56 208.61 588.56C171.82 588.56 141.96 558.7 141.96 521.91C141.96 485.13 171.82 455.26 208.61 455.26C245.39 455.26 275.26 485.13 275.26 521.91Z" id="b4dZQgRhsS"></path><path d="M1027.95 288.18C1027.95 324.97 998.09 354.83 961.3 354.83C924.52 354.83 894.65 324.97 894.65 288.18C894.65 251.4 924.52 221.53 961.3 221.53C998.09 221.53 1027.95 251.4 1027.95 288.18Z" id="b27JNNAdnq"></path><path d="M1015.54 182.01C1015.54 218.79 985.68 248.65 948.89 248.65C912.11 248.65 882.24 218.79 882.24 182.01C882.24 145.22 912.11 115.36 948.89 115.36C985.68 115.36 1015.54 145.22 1015.54 182.01Z" id="a1zqkRcuzY"></path><path d="M1097.49 624.7C1097.49 661.48 1067.62 691.35 1030.84 691.35C994.05 691.35 964.19 661.48 964.19 624.7C964.19 587.91 994.05 558.05 1030.84 558.05C1067.62 558.05 1097.49 587.91 1097.49 624.7Z" id="a1vwCs6OL6"></path><path d="M1169.92 628.06C1169.92 664.84 1140.06 694.71 1103.27 694.71C1066.49 694.71 1036.62 664.84 1036.62 628.06C1036.62 591.28 1066.49 561.41 1103.27 561.41C1140.06 561.41 1169.92 591.28 1169.92 628.06Z" id="a1e0KX5Vt8"></path><path d="M895.72 384.97C895.72 397.28 885.73 407.26 873.43 407.26C861.12 407.26 851.13 397.28 851.13 384.97C851.13 372.67 861.12 362.68 873.43 362.68C885.73 362.68 895.72 372.67 895.72 384.97Z" id="ed4CUxL7a"></path><path d="M875.82 384.97C875.82 397.28 865.84 407.26 853.53 407.26C841.23 407.26 831.24 397.28 831.24 384.97C831.24 372.67 841.23 362.68 853.53 362.68C865.84 362.68 875.82 372.67 875.82 384.97Z" id="c5MhKbGdVb"></path><path d="M904.54 413.49C904.54 425.8 894.55 435.79 882.24 435.79C869.94 435.79 859.95 425.8 859.95 413.49C859.95 401.19 869.94 391.2 882.24 391.2C894.55 391.2 904.54 401.19 904.54 413.49Z" id="f1OjQ5a3xF"></path><path d="M892.92 414.44C892.92 426.74 882.93 436.73 870.62 436.73C858.32 436.73 848.33 426.74 848.33 414.44C848.33 402.14 858.32 392.15 870.62 392.15C882.93 392.15 892.92 402.14 892.92 414.44Z" id="b7JUL5b3x"></path><path d="M717.13 377.75C717.13 390.05 707.14 400.04 694.84 400.04C682.53 400.04 672.55 390.05 672.55 377.75C672.55 365.44 682.53 355.45 694.84 355.45C707.14 355.45 717.13 365.44 717.13 377.75Z" id="fOoNOq9I"></path><path d="M717.13 414.44C717.13 426.74 707.14 436.73 694.84 436.73C682.53 436.73 672.55 426.74 672.55 414.44C672.55 402.14 682.53 392.15 694.84 392.15C707.14 392.15 717.13 402.14 717.13 414.44Z" id="g1WcJzpHDz"></path><path d="M535.34 272.18C535.34 284.48 525.35 294.47 513.05 294.47C500.75 294.47 490.76 284.48 490.76 272.18C490.76 259.87 500.75 249.88 513.05 249.88C525.35 249.88 535.34 259.87 535.34 272.18Z" id="a1OyT4snEX"></path><path d="M493.9 272.18C493.9 284.48 483.91 294.47 471.61 294.47C459.31 294.47 449.32 284.48 449.32 272.18C449.32 259.87 459.31 249.88 471.61 249.88C483.91 249.88 493.9 259.87 493.9 272.18Z" id="bLaBk3Jt2"></path><path d="M507.1 221.53C507.1 233.84 497.11 243.83 484.81 243.83C472.51 243.83 462.52 233.84 462.52 221.53C462.52 209.23 472.51 199.24 484.81 199.24C497.11 199.24 507.1 209.23 507.1 221.53Z" id="j9cLeAsVlc"></path><path d="M519.84 221.53C519.84 233.84 509.85 243.83 497.55 243.83C485.25 243.83 475.26 233.84 475.26 221.53C475.26 209.23 485.25 199.24 497.55 199.24C509.85 199.24 519.84 209.23 519.84 221.53Z" id="f4hKUaTlhx"></path><path d="M534.42 197.4C534.42 209.71 524.43 219.7 512.13 219.7C499.83 219.7 489.84 209.71 489.84 197.4C489.84 185.1 499.83 175.11 512.13 175.11C524.43 175.11 534.42 185.1 534.42 197.4Z" id="cibdIePLN"></path><path d="M593.36 95.39C593.36 107.7 583.37 117.68 571.07 117.68C558.76 117.68 548.77 107.7 548.77 95.39C548.77 83.09 558.76 73.1 571.07 73.1C583.37 73.1 593.36 83.09 593.36 95.39Z" id="bjMu0eSO0"></path><path d="M625.43 95.39C625.43 107.7 615.44 117.68 603.14 117.68C590.84 117.68 580.85 107.7 580.85 95.39C580.85 83.09 590.84 73.1 603.14 73.1C615.44 73.1 625.43 83.09 625.43 95.39Z" id="eZQwA4DJC"></path><path d="M702.95 76.6C702.95 88.91 692.96 98.9 680.66 98.9C668.36 98.9 658.37 88.91 658.37 76.6C658.37 64.3 668.36 54.31 680.66 54.31C692.96 54.31 702.95 64.3 702.95 76.6Z" id="a4pgMXcZp"></path><path d="M717.13 141.59C717.13 178.37 687.27 208.23 650.48 208.23C613.7 208.23 583.83 178.37 583.83 141.59C583.83 104.8 613.7 74.94 650.48 74.94C687.27 74.94 717.13 104.8 717.13 141.59Z" id="bqBhDQrYL"></path><path d="M707.12 311.1C707.12 323.4 697.13 333.39 684.83 333.39C672.52 333.39 662.53 323.4 662.53 311.1C662.53 298.79 672.52 288.81 684.83 288.81C697.13 288.81 707.12 298.79 707.12 311.1Z" id="a5VvaYoXN"></path><path d="M697.39 282.17C697.39 294.47 687.41 304.46 675.1 304.46C662.8 304.46 652.81 294.47 652.81 282.17C652.81 269.87 662.8 259.88 675.1 259.88C687.41 259.88 697.39 269.87 697.39 282.17Z" id="amOlczRKu"></path><path d="M690.37 262.43C690.37 274.74 680.38 284.73 668.08 284.73C655.77 284.73 645.79 274.74 645.79 262.43C645.79 250.13 655.77 240.14 668.08 240.14C680.38 240.14 690.37 250.13 690.37 262.43Z" id="e8HDcU8nB"></path><path d="M599.1 665.81C599.1 678.11 589.11 688.1 576.81 688.1C564.51 688.1 554.52 678.11 554.52 665.81C554.52 653.5 564.51 643.52 576.81 643.52C589.11 643.52 599.1 653.5 599.1 665.81Z" id="a2iAO9et7Y"></path><path d="M609.55 665.81C609.55 678.11 599.56 688.1 587.25 688.1C574.95 688.1 564.96 678.11 564.96 665.81C564.96 653.5 574.95 643.52 587.25 643.52C599.56 643.52 609.55 653.5 609.55 665.81Z" id="b2nUD9hfsW"></path><path d="M269.4 724.67C269.4 736.97 259.41 746.96 247.1 746.96C234.8 746.96 224.81 736.97 224.81 724.67C224.81 712.37 234.8 702.38 247.1 702.38C259.41 702.38 269.4 712.37 269.4 724.67Z" id="a1IwAHuVGV"></path><path d="M279.64 724.67C279.64 736.97 269.65 746.96 257.34 746.96C245.04 746.96 235.05 736.97 235.05 724.67C235.05 712.37 245.04 702.38 257.34 702.38C269.65 702.38 279.64 712.37 279.64 724.67Z" id="gEKAsTdFE"></path><path d="M283.44 750.9C283.44 763.2 273.45 773.19 261.15 773.19C248.85 773.19 238.86 763.2 238.86 750.9C238.86 738.6 248.85 728.61 261.15 728.61C273.45 728.61 283.44 738.6 283.44 750.9Z" id="b53vYlgr"></path><path d="M291.79 750.9C291.79 763.2 281.8 773.19 269.5 773.19C257.19 773.19 247.2 763.2 247.2 750.9C247.2 738.6 257.19 728.61 269.5 728.61C281.8 728.61 291.79 738.6 291.79 750.9Z" id="d1HZOHjX8P"></path><path d="M201.83 414.9C201.83 427.2 191.84 437.19 179.54 437.19C167.23 437.19 157.24 427.2 157.24 414.9C157.24 402.6 167.23 392.61 179.54 392.61C191.84 392.61 201.83 402.6 201.83 414.9Z" id="a5UKiFLrQt"></path><path d="M245.26 414.9C245.26 427.2 235.28 437.19 222.97 437.19C210.67 437.19 200.68 427.2 200.68 414.9C200.68 402.6 210.67 392.61 222.97 392.61C235.28 392.61 245.26 402.6 245.26 414.9Z" id="cKUIRgLQk"></path><path d="M213.03 400.04C213.03 412.34 203.04 422.33 190.74 422.33C178.44 422.33 168.45 412.34 168.45 400.04C168.45 387.73 178.44 377.75 190.74 377.75C203.04 377.75 213.03 387.73 213.03 400.04Z" id="afGFYumr7"></path><path d="M224.84 399.61C224.84 411.91 214.85 421.9 202.54 421.9C190.24 421.9 180.25 411.91 180.25 399.61C180.25 387.3 190.24 377.31 202.54 377.31C214.85 377.31 224.84 387.3 224.84 399.61Z" id="a52GiKbEwI"></path><path d="M155.86 375.89C155.86 388.19 145.88 398.18 133.57 398.18C121.27 398.18 111.28 388.19 111.28 375.89C111.28 363.58 121.27 353.6 133.57 353.6C145.88 353.6 155.86 363.58 155.86 375.89Z" id="d3UsVcj05s"></path><path d="M148.84 375.89C148.84 388.19 138.85 398.18 126.55 398.18C114.24 398.18 104.26 388.19 104.26 375.89C104.26 363.58 114.24 353.6 126.55 353.6C138.85 353.6 148.84 363.58 148.84 375.89Z" id="a36vAgSuVd"></path><path d="M129.41 365.02C129.41 377.33 119.42 387.32 107.11 387.32C94.81 387.32 84.82 377.33 84.82 365.02C84.82 352.72 94.81 342.73 107.11 342.73C119.42 342.73 129.41 352.72 129.41 365.02Z" id="b4BAwHVKpF"></path><path d="M134.59 363.21C134.59 375.52 124.6 385.51 112.3 385.51C100 385.51 90.01 375.52 90.01 363.21C90.01 350.91 100 340.92 112.3 340.92C124.6 340.92 134.59 350.91 134.59 363.21Z" id="dJaT0mnJ6"></path><path d="M105.96 344.78C105.96 357.08 95.98 367.07 83.67 367.07C71.37 367.07 61.38 357.08 61.38 344.78C61.38 332.47 71.37 322.48 83.67 322.48C95.98 322.48 105.96 332.47 105.96 344.78Z" id="b1EC7PWGiK"></path><path d="M131.12 331.3C131.12 343.61 121.13 353.6 108.82 353.6C96.52 353.6 86.53 343.61 86.53 331.3C86.53 319 96.52 309.01 108.82 309.01C121.13 309.01 131.12 319 131.12 331.3Z" id="c16w0bgewr"></path><path d="M93.3 331.3C93.3 343.61 83.31 353.6 71 353.6C58.7 353.6 48.71 343.61 48.71 331.3C48.71 319 58.7 309.01 71 309.01C83.31 309.01 93.3 319 93.3 331.3Z" id="bcbxB785"></path><path d="M81.22 307.89C81.22 320.19 71.23 330.18 58.92 330.18C46.62 330.18 36.63 320.19 36.63 307.89C36.63 295.59 46.62 285.6 58.92 285.6C71.23 285.6 81.22 295.59 81.22 307.89Z" id="a988uGPNf"></path><path d="M316.37 183.95C316.37 196.26 306.38 206.25 294.07 206.25C281.77 206.25 271.78 196.26 271.78 183.95C271.78 171.65 281.77 161.66 294.07 161.66C306.38 161.66 316.37 171.65 316.37 183.95Z" id="a6xrJOv4bA"></path><path d="M875.82 366.14C875.82 378.45 865.84 388.44 853.53 388.44C841.23 388.44 831.24 378.45 831.24 366.14C831.24 353.84 841.23 343.85 853.53 343.85C865.84 343.85 875.82 353.84 875.82 366.14Z" id="e1axHN7icI"></path><path d="M880.75 362.68C880.75 374.98 870.76 384.97 858.46 384.97C846.15 384.97 836.17 374.98 836.17 362.68C836.17 350.38 846.15 340.39 858.46 340.39C870.76 340.39 880.75 350.38 880.75 362.68Z" id="a1DCa2jrra"></path><path d="M867.29 344.78C867.29 357.08 857.3 367.07 845 367.07C832.7 367.07 822.71 357.08 822.71 344.78C822.71 332.47 832.7 322.48 845 322.48C857.3 322.48 867.29 332.47 867.29 344.78Z" id="aS0VesNXH"></path><path d="M1034.47 226.36C1034.47 238.66 1024.48 248.65 1012.18 248.65C999.88 248.65 989.89 238.66 989.89 226.36C989.89 214.06 999.88 204.07 1012.18 204.07C1024.48 204.07 1034.47 214.06 1034.47 226.36Z" id="e2bafnWjLc"></path><path d="M1021.93 208.08C1021.93 220.39 1011.94 230.38 999.64 230.38C987.34 230.38 977.35 220.39 977.35 208.08C977.35 195.78 987.34 185.79 999.64 185.79C1011.94 185.79 1021.93 195.78 1021.93 208.08Z" id="b7eC6byus"></path><path d="M1034.47 106.83C1034.47 119.13 1024.48 129.12 1012.18 129.12C999.88 129.12 989.89 119.13 989.89 106.83C989.89 94.52 999.88 84.53 1012.18 84.53C1024.48 84.53 1034.47 94.52 1034.47 106.83Z" id="g2UPP1sZR2"></path><path d="M1192.21 520.88C1192.21 533.18 1182.22 543.17 1169.92 543.17C1157.62 543.17 1147.63 533.18 1147.63 520.88C1147.63 508.57 1157.62 498.58 1169.92 498.58C1182.22 498.58 1192.21 508.57 1192.21 520.88Z" id="d120X2gQwI"></path><path d="M1179.67 520.88C1179.67 533.18 1169.68 543.17 1157.38 543.17C1145.08 543.17 1135.09 533.18 1135.09 520.88C1135.09 508.57 1145.08 498.58 1157.38 498.58C1169.68 498.58 1179.67 508.57 1179.67 520.88Z" id="aYTfWuCdZ"></path><path d="M1163 551.01C1163 563.32 1153.01 573.31 1140.7 573.31C1128.4 573.31 1118.41 563.32 1118.41 551.01C1118.41 538.71 1128.4 528.72 1140.7 528.72C1153.01 528.72 1163 538.71 1163 551.01Z" id="c1cYgFfT22"></path><path d="M1151.38 551.01C1151.38 563.32 1141.39 573.31 1129.08 573.31C1116.78 573.31 1106.79 563.32 1106.79 551.01C1106.79 538.71 1116.78 528.72 1129.08 528.72C1141.39 528.72 1151.38 538.71 1151.38 551.01Z" id="c18UpcvQnh"></path><path d="M1109.88 551.01C1109.88 563.32 1099.89 573.31 1087.59 573.31C1075.28 573.31 1065.29 563.32 1065.29 551.01C1065.29 538.71 1075.28 528.72 1087.59 528.72C1099.89 528.72 1109.88 538.71 1109.88 551.01Z" id="i8EeDqu6zv"></path><path d="M1122.16 551.01C1122.16 563.32 1112.17 573.31 1099.87 573.31C1087.56 573.31 1077.57 563.32 1077.57 551.01C1077.57 538.71 1087.56 528.72 1099.87 528.72C1112.17 528.72 1122.16 538.71 1122.16 551.01Z" id="c2Dp34bNTb"></path><path d="M1087.59 563.91C1087.59 576.21 1077.6 586.2 1065.29 586.2C1052.99 586.2 1043 576.21 1043 563.91C1043 551.61 1052.99 541.62 1065.29 541.62C1077.6 541.62 1087.59 551.61 1087.59 563.91Z" id="a8PiWIwj"></path><path d="M993.48 669.05C993.48 681.36 983.49 691.35 971.18 691.35C958.88 691.35 948.89 681.36 948.89 669.05C948.89 656.75 958.88 646.76 971.18 646.76C983.49 646.76 993.48 656.75 993.48 669.05Z" id="b1hBnz9X3w"></path><path d="M1004.38 669.05C1004.38 681.36 994.39 691.35 982.09 691.35C969.78 691.35 959.79 681.36 959.79 669.05C959.79 656.75 969.78 646.76 982.09 646.76C994.39 646.76 1004.38 656.75 1004.38 669.05Z" id="by3F36oil"></path><path d="M1073.35 723.78C1073.35 736.08 1063.36 746.07 1051.06 746.07C1038.76 746.07 1028.77 736.08 1028.77 723.78C1028.77 711.48 1038.76 701.49 1051.06 701.49C1063.36 701.49 1073.35 711.48 1073.35 723.78Z" id="b3Lr60NPvE"></path><path d="M1084.26 723.78C1084.26 736.08 1074.27 746.07 1061.96 746.07C1049.66 746.07 1039.67 736.08 1039.67 723.78C1039.67 711.48 1049.66 701.49 1061.96 701.49C1074.27 701.49 1084.26 711.48 1084.26 723.78Z" id="b46YmBrFk"></path><path d="M1155.83 576.72C1155.83 589.03 1145.84 599.02 1133.54 599.02C1121.23 599.02 1111.25 589.03 1111.25 576.72C1111.25 564.42 1121.23 554.43 1133.54 554.43C1145.84 554.43 1155.83 564.42 1155.83 576.72Z" id="b3eFKiPbzv"></path><path d="M495.84 158.54C495.84 164.63 490.9 169.57 484.81 169.57C478.72 169.57 473.78 164.63 473.78 158.54C473.78 152.45 478.72 147.51 484.81 147.51C490.9 147.51 495.84 152.45 495.84 158.54Z" id="cRDbkpu5r"></path><path d="M507.1 158.54C507.1 164.63 502.16 169.57 496.07 169.57C489.98 169.57 485.04 164.63 485.04 158.54C485.04 152.45 489.98 147.51 496.07 147.51C502.16 147.51 507.1 152.45 507.1 158.54Z" id="aopFW3Uy6"></path><path d="M546.37 109.93C546.37 116.02 541.43 120.96 535.34 120.96C529.25 120.96 524.31 116.02 524.31 109.93C524.31 103.84 529.25 98.9 535.34 98.9C541.43 98.9 546.37 103.84 546.37 109.93Z" id="f57pXi27zh"></path><path d="M565.09 124.67C565.09 130.75 560.15 135.7 554.06 135.7C547.97 135.7 543.03 130.75 543.03 124.67C543.03 118.58 547.97 113.63 554.06 113.63C560.15 113.63 565.09 118.58 565.09 124.67Z" id="iM5WwIWxR"></path><path d="M574.29 124.67C574.29 130.75 569.35 135.7 563.26 135.7C557.17 135.7 552.23 130.75 552.23 124.67C552.23 118.58 557.17 113.63 563.26 113.63C569.35 113.63 574.29 118.58 574.29 124.67Z" id="h1Uy5hAQZ7"></path><path d="M947.85 353.99C947.85 360.08 942.91 365.02 936.82 365.02C930.73 365.02 925.79 360.08 925.79 353.99C925.79 347.9 930.73 342.96 936.82 342.96C942.91 342.96 947.85 347.9 947.85 353.99Z" id="a1UJpRnI4"></path><path d="M969.92 354.88C969.92 360.97 964.97 365.91 958.88 365.91C952.8 365.91 947.85 360.97 947.85 354.88C947.85 348.79 952.8 343.85 958.88 343.85C964.97 343.85 969.92 348.79 969.92 354.88Z" id="c2DKvtcCkY"></path><path d="M702.78 589.36C702.78 595.45 697.84 600.4 691.75 600.4C685.66 600.4 680.72 595.45 680.72 589.36C680.72 583.28 685.66 578.33 691.75 578.33C697.84 578.33 702.78 583.28 702.78 589.36Z" id="c7FvLuKua"></path><path d="M713.81 589.36C713.81 595.45 708.87 600.4 702.78 600.4C696.69 600.4 691.75 595.45 691.75 589.36C691.75 583.28 696.69 578.33 702.78 578.33C708.87 578.33 713.81 583.28 713.81 589.36Z" id="dg5NIhMrb"></path><path d="M697.39 601.8C697.39 607.89 692.45 612.83 686.36 612.83C680.28 612.83 675.33 607.89 675.33 601.8C675.33 595.71 680.28 590.77 686.36 590.77C692.45 590.77 697.39 595.71 697.39 601.8Z" id="f15rFEgP8B"></path><path d="M710.14 601.8C710.14 607.89 705.19 612.83 699.1 612.83C693.02 612.83 688.07 607.89 688.07 601.8C688.07 595.71 693.02 590.77 699.1 590.77C705.19 590.77 710.14 595.71 710.14 601.8Z" id="e1A56GTuWa"></path><path d="M965.57 376.05C965.57 382.14 960.62 387.09 954.54 387.09C948.45 387.09 943.5 382.14 943.5 376.05C943.5 369.97 948.45 365.02 954.54 365.02C960.62 365.02 965.57 369.97 965.57 376.05Z" id="c3et8Hx28i"></path><path d="M987.63 376.05C987.63 382.14 982.69 387.09 976.6 387.09C970.51 387.09 965.57 382.14 965.57 376.05C965.57 369.97 970.51 365.02 976.6 365.02C982.69 365.02 987.63 369.97 987.63 376.05Z" id="a2llxYMRAU"></path><path d="M986.25 396.23C986.25 402.32 981.31 407.26 975.22 407.26C969.13 407.26 964.19 402.32 964.19 396.23C964.19 390.14 969.13 385.2 975.22 385.2C981.31 385.2 986.25 390.14 986.25 396.23Z" id="axjQ97C2X"></path><path d="M1000.92 397.18C1000.92 403.27 995.98 408.21 989.89 408.21C983.8 408.21 978.86 403.27 978.86 397.18C978.86 391.09 983.8 386.15 989.89 386.15C995.98 386.15 1000.92 391.09 1000.92 397.18Z" id="b1d0K7SByu"></path><path d="M1045.5 363.66C1045.5 369.74 1040.56 374.69 1034.47 374.69C1028.38 374.69 1023.44 369.74 1023.44 363.66C1023.44 357.57 1028.38 352.62 1034.47 352.62C1040.56 352.62 1045.5 357.57 1045.5 363.66Z" id="c5t9KAUzaJ"></path><path d="M1056.54 363.66C1056.54 369.74 1051.59 374.69 1045.5 374.69C1039.42 374.69 1034.47 369.74 1034.47 363.66C1034.47 357.57 1039.42 352.62 1045.5 352.62C1051.59 352.62 1056.54 357.57 1056.54 363.66Z" id="duDgKpyAY"></path><path d="M957.58 424.52C957.58 430.61 952.64 435.56 946.55 435.56C940.46 435.56 935.52 430.61 935.52 424.52C935.52 418.44 940.46 413.49 946.55 413.49C952.64 413.49 957.58 418.44 957.58 424.52Z" id="aYEkXRSb6"></path><path d="M983.36 424.52C983.36 430.61 978.42 435.56 972.33 435.56C966.24 435.56 961.3 430.61 961.3 424.52C961.3 418.44 966.24 413.49 972.33 413.49C978.42 413.49 983.36 418.44 983.36 424.52Z" id="apaECyi9x"></path><path d="M957.58 452.36C957.58 458.45 952.64 463.39 946.55 463.39C940.46 463.39 935.52 458.45 935.52 452.36C935.52 446.27 940.46 441.33 946.55 441.33C952.64 441.33 957.58 446.27 957.58 452.36Z" id="a21tZPPzfc"></path><path d="M982.22 452.36C982.22 458.45 977.27 463.39 971.18 463.39C965.1 463.39 960.15 458.45 960.15 452.36C960.15 446.27 965.1 441.33 971.18 441.33C977.27 441.33 982.22 446.27 982.22 452.36Z" id="f7SUxhXSuY"></path><path d="M969.92 479.97C969.92 486.06 964.97 491 958.88 491C952.8 491 947.85 486.06 947.85 479.97C947.85 473.88 952.8 468.94 958.88 468.94C964.97 468.94 969.92 473.88 969.92 479.97Z" id="a2YTzapLLp"></path><path d="M982.22 479.97C982.22 486.06 977.27 491 971.18 491C965.1 491 960.15 486.06 960.15 479.97C960.15 473.88 965.1 468.94 971.18 468.94C977.27 468.94 982.22 473.88 982.22 479.97Z" id="d4MCghKI7g"></path><path d="M986.25 499.76C986.25 505.85 981.31 510.79 975.22 510.79C969.13 510.79 964.19 505.85 964.19 499.76C964.19 493.67 969.13 488.73 975.22 488.73C981.31 488.73 986.25 493.67 986.25 499.76Z" id="aXjsy7hhn"></path><path d="M999.64 499.76C999.64 505.85 994.7 510.79 988.61 510.79C982.52 510.79 977.58 505.85 977.58 499.76C977.58 493.67 982.52 488.73 988.61 488.73C994.7 488.73 999.64 493.67 999.64 499.76Z" id="gsT2EQFQW"></path><path d="M1010.67 520.85C1010.67 526.94 1005.73 531.88 999.64 531.88C993.55 531.88 988.61 526.94 988.61 520.85C988.61 514.76 993.55 509.82 999.64 509.82C1005.73 509.82 1010.67 514.76 1010.67 520.85Z" id="a2ezOU5vxU"></path><path d="M1022.98 520.85C1022.98 526.94 1018.04 531.88 1011.95 531.88C1005.86 531.88 1000.92 526.94 1000.92 520.85C1000.92 514.76 1005.86 509.82 1011.95 509.82C1018.04 509.82 1022.98 514.76 1022.98 520.85Z" id="d5VQrc1oo"></path><path d="M1073.35 520.85C1073.35 526.94 1068.41 531.88 1062.32 531.88C1056.23 531.88 1051.29 526.94 1051.29 520.85C1051.29 514.76 1056.23 509.82 1062.32 509.82C1068.41 509.82 1073.35 514.76 1073.35 520.85Z" id="c17iqApGDZ"></path><path d="M1060.35 520.85C1060.35 526.94 1055.41 531.88 1049.32 531.88C1043.23 531.88 1038.29 526.94 1038.29 520.85C1038.29 514.76 1043.23 509.82 1049.32 509.82C1055.41 509.82 1060.35 514.76 1060.35 520.85Z" id="a4XVpob5Bl"></path><path d="M1133.19 509.85C1133.19 515.93 1128.25 520.88 1122.16 520.88C1116.07 520.88 1111.13 515.93 1111.13 509.85C1111.13 503.76 1116.07 498.81 1122.16 498.81C1128.25 498.81 1133.19 503.76 1133.19 509.85Z" id="cs75Gb4vU"></path><path d="M1112.38 497C1112.38 503.09 1107.44 508.04 1101.35 508.04C1095.26 508.04 1090.32 503.09 1090.32 497C1090.32 490.92 1095.26 485.97 1101.35 485.97C1107.44 485.97 1112.38 490.92 1112.38 497Z" id="feIU41QNt"></path><path d="M1146.12 497C1146.12 503.09 1141.18 508.04 1135.09 508.04C1129 508.04 1124.06 503.09 1124.06 497C1124.06 490.92 1129 485.97 1135.09 485.97C1141.18 485.97 1146.12 490.92 1146.12 497Z" id="a1ixRiAdAm"></path><path d="M1088.61 497C1088.61 503.09 1083.66 508.04 1077.57 508.04C1071.49 508.04 1066.54 503.09 1066.54 497C1066.54 490.92 1071.49 485.97 1077.57 485.97C1083.66 485.97 1088.61 490.92 1088.61 497Z" id="b1vviqUTsX"></path><path d="M1045.04 497C1045.04 503.09 1040.1 508.04 1034.01 508.04C1027.92 508.04 1022.98 503.09 1022.98 497C1022.98 490.92 1027.92 485.97 1034.01 485.97C1040.1 485.97 1045.04 490.92 1045.04 497Z" id="a7dC3YQFsW"></path><path d="M1066.67 466.21C1066.67 472.3 1061.73 477.24 1055.64 477.24C1049.55 477.24 1044.61 472.3 1044.61 466.21C1044.61 460.12 1049.55 455.18 1055.64 455.18C1061.73 455.18 1066.67 460.12 1066.67 466.21Z" id="a2QGMAaQz0"></path><path d="M1021.93 466.21C1021.93 472.3 1016.99 477.24 1010.9 477.24C1004.81 477.24 999.87 472.3 999.87 466.21C999.87 460.12 1004.81 455.18 1010.9 455.18C1016.99 455.18 1021.93 460.12 1021.93 466.21Z" id="c6livp1vHD"></path><path d="M1027.95 438.66C1027.95 444.75 1023.01 449.69 1016.92 449.69C1010.83 449.69 1005.89 444.75 1005.89 438.66C1005.89 432.57 1010.83 427.63 1016.92 427.63C1023.01 427.63 1027.95 432.57 1027.95 438.66Z" id="a4RGB7338"></path><path d="M1039.8 438.66C1039.8 444.75 1034.86 449.69 1028.77 449.69C1022.68 449.69 1017.74 444.75 1017.74 438.66C1017.74 432.57 1022.68 427.63 1028.77 427.63C1034.86 427.63 1039.8 432.57 1039.8 438.66Z" id="b7Xe0BESJI"></path><path d="M1082.42 413.49C1082.42 419.58 1077.47 424.52 1071.39 424.52C1065.3 424.52 1060.35 419.58 1060.35 413.49C1060.35 407.4 1065.3 402.46 1071.39 402.46C1077.47 402.46 1082.42 407.4 1082.42 413.49Z" id="b1nZxW3Gt"></path><path d="M1070.34 413.49C1070.34 419.58 1065.39 424.52 1059.31 424.52C1053.22 424.52 1048.27 419.58 1048.27 413.49C1048.27 407.4 1053.22 402.46 1059.31 402.46C1065.39 402.46 1070.34 407.4 1070.34 413.49Z" id="f1kJPYF2Qg"></path><path d="M1060.35 396C1060.35 402.09 1055.41 407.03 1049.32 407.03C1043.23 407.03 1038.29 402.09 1038.29 396C1038.29 389.91 1043.23 384.97 1049.32 384.97C1055.41 384.97 1060.35 389.91 1060.35 396Z" id="a6sswXxq6l"></path><path d="M1074.37 396C1074.37 402.09 1069.43 407.03 1063.34 407.03C1057.25 407.03 1052.31 402.09 1052.31 396C1052.31 389.91 1057.25 384.97 1063.34 384.97C1069.43 384.97 1074.37 389.91 1074.37 396Z" id="a6inRIXab"></path><path d="M1048.27 259.92C1048.27 266 1043.33 270.95 1037.24 270.95C1031.15 270.95 1026.21 266 1026.21 259.92C1026.21 253.83 1031.15 248.88 1037.24 248.88C1043.33 248.88 1048.27 253.83 1048.27 259.92Z" id="a2rkbPlHy8"></path><path d="M1061.86 259.92C1061.86 266 1056.92 270.95 1050.83 270.95C1044.74 270.95 1039.8 266 1039.8 259.92C1039.8 253.83 1044.74 248.88 1050.83 248.88C1056.92 248.88 1061.86 253.83 1061.86 259.92Z" id="bkvOAAFd1"></path><path d="M1065.29 242.48C1065.29 248.57 1060.35 253.51 1054.26 253.51C1048.17 253.51 1043.23 248.57 1043.23 242.48C1043.23 236.39 1048.17 231.45 1054.26 231.45C1060.35 231.45 1065.29 236.39 1065.29 242.48Z" id="iOZnwKjPw"></path><path d="M1078.6 242.48C1078.6 248.57 1073.66 253.51 1067.57 253.51C1061.48 253.51 1056.54 248.57 1056.54 242.48C1056.54 236.39 1061.48 231.45 1067.57 231.45C1073.66 231.45 1078.6 236.39 1078.6 242.48Z" id="e1jr3v9Y9l"></path><path d="M1070.34 219.27C1070.34 225.35 1065.39 230.3 1059.31 230.3C1053.22 230.3 1048.27 225.35 1048.27 219.27C1048.27 213.18 1053.22 208.23 1059.31 208.23C1065.39 208.23 1070.34 213.18 1070.34 219.27Z" id="c1UAQsGtr"></path><path d="M1056.54 219.27C1056.54 225.35 1051.59 230.3 1045.5 230.3C1039.42 230.3 1034.47 225.35 1034.47 219.27C1034.47 213.18 1039.42 208.23 1045.5 208.23C1051.59 208.23 1056.54 213.18 1056.54 219.27Z" id="etoEsbmuv"></path><path d="M1059.31 191.26C1059.31 197.34 1054.36 202.29 1048.27 202.29C1042.19 202.29 1037.24 197.34 1037.24 191.26C1037.24 185.17 1042.19 180.22 1048.27 180.22C1054.36 180.22 1059.31 185.17 1059.31 191.26Z" id="a1oA1bUWB"></path><path d="M1045.5 191.26C1045.5 197.34 1040.56 202.29 1034.47 202.29C1028.38 202.29 1023.44 197.34 1023.44 191.26C1023.44 185.17 1028.38 180.22 1034.47 180.22C1040.56 180.22 1045.5 185.17 1045.5 191.26Z" id="de20DQ7DI"></path><path d="M201.6 342.33C201.6 348.42 196.66 353.37 190.57 353.37C184.48 353.37 179.54 348.42 179.54 342.33C179.54 336.25 184.48 331.3 190.57 331.3C196.66 331.3 201.6 336.25 201.6 342.33Z" id="aw4QSVs41"></path><path d="M187.51 342.73C187.51 348.82 182.56 353.76 176.48 353.76C170.39 353.76 165.44 348.82 165.44 342.73C165.44 336.64 170.39 331.7 176.48 331.7C182.56 331.7 187.51 336.64 187.51 342.73Z" id="cfMJnu3zu"></path><path d="M174.97 331.01C174.97 337.1 170.03 342.04 163.94 342.04C157.85 342.04 152.91 337.1 152.91 331.01C152.91 324.92 157.85 319.98 163.94 319.98C170.03 319.98 174.97 324.92 174.97 331.01Z" id="b20QPHAjsa"></path><path d="M161.97 330.18C161.97 336.27 157.03 341.21 150.94 341.21C144.85 341.21 139.91 336.27 139.91 330.18C139.91 324.09 144.85 319.15 150.94 319.15C157.03 319.15 161.97 324.09 161.97 330.18Z" id="a3oqmwFEX8"></path><path d="M107.11 98.9L271.78 98.9L271.78 190.28L107.11 190.28L107.11 98.9Z" id="fSXi0LSB"></path><path d="M616.57 103.03L989.89 103.03L989.89 267.96L616.57 267.96L616.57 103.03Z" id="f5gunavBE"></path><path d="M683.98 188.96L1010.9 188.96L1010.9 333.39L683.98 333.39L683.98 188.96Z" id="a5XPLmtN7"></path><path d="M715.11 247.14L958.88 247.14L958.88 354.83L715.11 354.83L715.11 247.14Z" id="a1b958v2Mm"></path><path d="M741.26 38.11L969.12 38.11L969.12 145.8L741.26 145.8L741.26 38.11Z" id="e4mmE8FZpF"></path><path d="M681.84 54.31L909.69 54.31L909.69 162.01L681.84 162.01L681.84 54.31Z" id="bhdRgPm9z"></path><path d="M848.33 96.23L1013 96.23L1013 129.12L848.33 129.12L848.33 96.23Z" id="c1vs4lNCd"></path><path d="M543.03 137.53L707.69 137.53L707.69 170.42L543.03 170.42L543.03 137.53Z" id="g2ohOEtQCg"></path><path d="M563.45 84.8L728.12 84.8L728.12 117.68L563.45 117.68L563.45 84.8Z" id="dqV5RxlGX"></path><path d="M568.15 73.1L604.12 73.1L604.12 105.99L568.15 105.99L568.15 73.1Z" id="hlOQ5lkF6"></path><path d="M536.07 98.9L572.04 98.9L572.04 120.96L536.07 120.96L536.07 98.9Z" id="eSVX6lCjD"></path><path d="M570.15 225.67C570.15 231.76 565.2 236.7 559.11 236.7C553.03 236.7 548.08 231.76 548.08 225.67C548.08 219.58 553.03 214.64 559.11 214.64C565.2 214.64 570.15 219.58 570.15 225.67Z" id="a1U9qzeMdK"></path><path d="M576.12 225.67C576.12 231.76 571.18 236.7 565.09 236.7C559 236.7 554.06 231.76 554.06 225.67C554.06 219.58 559 214.64 565.09 214.64C571.18 214.64 576.12 219.58 576.12 225.67Z" id="e2eGqjQiIz"></path><path d="M471.85 249.88L516.44 249.88L516.44 271.95L471.85 271.95L471.85 249.88Z" id="bnsdfR0G"></path><path d="M520.73 272.41L595.66 272.41L595.66 471.89L520.73 471.89L520.73 272.41Z" id="aA0NydvhF"></path><path d="M457.07 284.73L559.11 284.73L559.11 466.69L457.07 466.69L457.07 284.73Z" id="acOuo3xT3"></path><path d="M554.06 364.28L656.1 364.28L656.1 546.24L554.06 546.24L554.06 364.28Z" id="a4SiSrVZMb"></path><path d="M191.18 277.55C191.18 285.29 184.9 291.57 177.17 291.57C169.43 291.57 163.15 285.29 163.15 277.55C163.15 269.82 169.43 263.53 177.17 263.53C184.9 263.53 191.18 269.82 191.18 277.55Z" id="a3900Ok8tp"></path><path d="M174.97 277.55C174.97 285.29 168.69 291.57 160.95 291.57C153.21 291.57 146.93 285.29 146.93 277.55C146.93 269.82 153.21 263.53 160.95 263.53C168.69 263.53 174.97 269.82 174.97 277.55Z" id="arcgZbG0u"></path><path d="M27.77 197.89L154.74 197.89L154.74 289.27L27.77 289.27L27.77 197.89Z" id="b1t8QVRUOD"></path><path d="M160.95 269.51L180.25 269.51L180.25 291.57L160.95 291.57L160.95 269.51Z" id="bIFOjEWNn"></path><path d="M374.18 38.11L432.55 38.11L432.55 130.96L374.18 130.96L374.18 38.11Z" id="ad8dvxtiG"></path><path d="M212.92 38.11L294.07 38.11L294.07 66.15L212.92 66.15L212.92 38.11Z" id="a2EidQ4K8"></path><path d="M61.38 38.11L142.53 38.11L142.53 66.15L61.38 66.15L61.38 38.11Z" id="bjVyM7Ram"></path><path d="M1034.01 485.97L1078.6 485.97L1078.6 508.04L1034.01 508.04L1034.01 485.97Z" id="asZqaYsZr"></path><path d="M1012.18 455.18L1056.77 455.18L1056.77 477.24L1012.18 477.24L1012.18 455.18Z" id="fZypasi1L"></path><path d="M946.55 413.49L974.59 413.49L974.59 435.56L946.55 435.56L946.55 413.49Z" id="b3KUkhudfD"></path><path d="M933.83 343.8L961.87 343.8L961.87 365.86L933.83 365.86L933.83 343.8Z" id="d1W6yxL1c"></path><path d="M952.55 365.02L980.59 365.02L980.59 387.09L952.55 387.09L952.55 365.02Z" id="c4lmXI6fCV"></path><path d="M975.22 386.15L989.89 386.15L989.89 408.21L975.22 408.21L975.22 386.15Z" id="b15xaGRp6T"></path><path d="M946.55 441.33L974.59 441.33L974.59 463.39L946.55 463.39L946.55 441.33Z" id="eqNPjJ4s"></path><path d="M1103.27 485.97L1135.09 485.97L1135.09 508.04L1103.27 508.04L1103.27 485.97Z" id="dvGE455g2"></path><path d="M1122.16 498.81L1158.13 498.81L1158.13 520.88L1122.16 520.88L1122.16 498.81Z" id="c2REQvvhXl"></path><path d="M957.67 468.94L972.33 468.94L972.33 491L957.67 491L957.67 468.94Z" id="c1VM1AfSc"></path><path d="M974.88 488.73L989.55 488.73L989.55 510.79L974.88 510.79L974.88 488.73Z" id="a29JDVCNQn"></path><path d="M999.64 509.82L1014.31 509.82L1014.31 531.88L999.64 531.88L999.64 509.82Z" id="c4H02BJ6kZ"></path><path d="M1049.2 509.82L1063.87 509.82L1063.87 531.88L1049.2 531.88L1049.2 509.82Z" id="b2APd7S9OS"></path><path d="M1016.11 427.63L1030.77 427.63L1030.77 449.69L1016.11 449.69L1016.11 427.63Z" id="a5p9wv8MQC"></path><path d="M1057.96 402.46L1072.63 402.46L1072.63 424.52L1057.96 424.52L1057.96 402.46Z" id="a7TcuKa6l4"></path><path d="M1049.32 384.97L1063.99 384.97L1063.99 407.03L1049.32 407.03L1049.32 384.97Z" id="d61qNrgiML"></path><path d="M1033.61 352.62L1048.27 352.62L1048.27 374.69L1033.61 374.69L1033.61 352.62Z" id="a2gfh5Vgjp"></path><path d="M1037.64 248.65L1052.31 248.65L1052.31 270.72L1037.64 270.72L1037.64 248.65Z" id="e2qBq1UZLu"></path><path d="M1054.53 231.45L1069.2 231.45L1069.2 253.51L1054.53 253.51L1054.53 231.45Z" id="b8CGQvzQL"></path><path d="M1045.69 208.23L1060.35 208.23L1060.35 230.3L1045.69 230.3L1045.69 208.23Z" id="g36LAyZTck"></path><path d="M1034.47 180.22L1049.14 180.22L1049.14 202.29L1034.47 202.29L1034.47 180.22Z" id="alJGzmpnj"></path><path d="M690.37 578.33L705.04 578.33L705.04 600.4L690.37 600.4L690.37 578.33Z" id="dVndZPq6b"></path><path d="M686.36 590.77L701.03 590.77L701.03 612.83L686.36 612.83L686.36 590.77Z" id="a8PnuJ21E"></path><path d="M483.42 147.51L498.09 147.51L498.09 169.57L483.42 169.57L483.42 147.51Z" id="hH6gp5Zh"></path><path d="M175.9 331.53L190.57 331.53L190.57 353.6L175.9 353.6L175.9 331.53Z" id="e10VhjZfzV"></path><path d="M149.91 318.86L164.58 318.86L164.58 340.92L149.91 340.92L149.91 318.86Z" id="f7Ouu8AWY"></path><path d="M576.81 158.37L741.48 158.37L741.48 191.26L576.81 191.26L576.81 158.37Z" id="a7dj9Li3Nu"></path><path d="M109.44 322.48C109.44 334.79 99.45 344.78 87.15 344.78C74.84 344.78 64.86 334.79 64.86 322.48C64.86 310.18 74.84 300.19 87.15 300.19C99.45 300.19 109.44 310.18 109.44 322.48Z" id="a63EYL4IOo"></path><path d="M227.07 430.64C227.07 442.95 217.08 452.94 204.77 452.94C192.47 452.94 182.48 442.95 182.48 430.64C182.48 418.34 192.47 408.35 204.77 408.35C217.08 408.35 227.07 418.34 227.07 430.64Z" id="b3I8836d3c"></path></defs><g><g><g><use xlink:href="#a1FX3LzAMz" opacity="1" fill="#385f3b" fill-opacity="1"></use></g><g><use xlink:href="#h1zKhc6zA7" opacity="1" fill="#385f3b" fill-opacity="1"></use></g><g><use xlink:href="#bE4eQjo3W" opacity="1" fill="#385f3b" fill-opacity="1"></use></g><g><use xlink:href="#d1L7PuRuFW" opacity="1" fill="#385f3b" fill-opacity="1"></use></g><g><use xlink:href="#d1m6XLr4rs" opacity="1" fill="#385f3b" fill-opacity="1"></use></g><g><use xlink:href="#h2io4N3KjQ" opacity="1" fill="#385f3b" fill-opacity="1"></use></g><g><use xlink:href="#cagjXBTKC" opacity="1" fill="#385f3b" fill-opacity="1"></use></g><g><use xlink:href="#d1pilGz1Xq" opacity="1" fill="#385f3b" fill-opacity="1"></use></g><g><use xlink:href="#atx9eNfhG" opacity="1" fill="#385f3b" fill-opacity="1"></use></g><g><use xlink:href="#brRrzHc9S" opacity="1" fill="#385f3b" fill-opacity="1"></use></g><g><use xlink:href="#dWi2ozknz" opacity="1" fill="#385f3b" fill-opacity="1"></use></g><g><use xlink:href="#aBQiL0iaE" opacity="1" fill="#385f3b" fill-opacity="1"></use></g><g><use xlink:href="#h6dwhBXSf" opacity="1" fill="#385f3b" fill-opacity="1"></use></g><g><use xlink:href="#a606UJJYil" opacity="1" fill="#385f3b" fill-opacity="1"></use></g><g><use xlink:href="#avGg21my6" opacity="1" fill="#385f3b" fill-opacity="1"></use></g><g><use xlink:href="#aoCccmMJs" opacity="1" fill="#385f3b" fill-opacity="1"></use></g><g><use xlink:href="#at6I69Qxk" opacity="1" fill="#385f3b" fill-opacity="1"></use></g><g><use xlink:href="#f34AIObYR9" opacity="1" fill="#385f3b" fill-opacity="1"></use></g><g><use xlink:href="#bntbEWagW" opacity="1" fill="#385f3b" fill-opacity="1"></use></g><g><use xlink:href="#mDYqgNNm" opacity="1" fill="#385f3b" fill-opacity="1"></use></g><g><use xlink:href="#buKqsQFn1" opacity="1" fill="#385f3b" fill-opacity="1"></use></g><g><use xlink:href="#b2aab10Ncd" opacity="1" fill="#385f3b" fill-opacity="1"></use></g><g><use xlink:href="#m1BJzE25Jj" opacity="1" fill="#385f3b" fill-opacity="1"></use></g><g><use xlink:href="#bq2v0CwF" opacity="1" fill="#385f3b" fill-opacity="1"></use></g><g><use xlink:href="#a1F2Nj9WrQ" opacity="1" fill="#385f3b" fill-opacity="1"></use></g><g><use xlink:href="#gD7i47QMg" opacity="1" fill="#385f3b" fill-opacity="1"></use></g><g><use xlink:href="#e1ddJHbIgH" opacity="1" fill="#385f3b" fill-opacity="1"></use></g><g><use xlink:href="#b6UOn57ST" opacity="1" fill="#385f3b" fill-opacity="1"></use></g><g><use xlink:href="#alGMNArW5" opacity="1" fill="#385f3b" fill-opacity="1"></use></g><g><use xlink:href="#b27I3Uo2H" opacity="1" fill="#385f3b" fill-opacity="1"></use></g><g><use xlink:href="#b3YwcVgsvc" opacity="1" fill="#385f3b" fill-opacity="1"></use></g><g><use xlink:href="#aIacntHNq" opacity="1" fill="#385f3b" fill-opacity="1"></use></g><g><use xlink:href="#bTU0eCT8Q" opacity="1" fill="#385f3b" fill-opacity="1"></use></g><g><use xlink:href="#aOlwzSPwd" opacity="1" fill="#385f3b" fill-opacity="1"></use></g><g><use xlink:href="#cqUQO1fwM" opacity="1" fill="#385f3b" fill-opacity="1"></use></g><g><use xlink:href="#dg5JZDoGW" opacity="1" fill="#385f3b" fill-opacity="1"></use></g><g><use xlink:href="#d18bLA1ln9" opacity="1" fill="#385f3b" fill-opacity="1"></use></g><g><use xlink:href="#d7YcQBXebq" opacity="1" fill="#385f3b" fill-opacity="1"></use></g><g><use xlink:href="#c1sWBGRI8l" opacity="1" fill="#385f3b" fill-opacity="1"></use></g><g><use xlink:href="#byPNiQyHJ" opacity="1" fill="#385f3b" fill-opacity="1"></use></g><g><use xlink:href="#cru2ZbnDy" opacity="1" fill="#385f3b" fill-opacity="1"></use></g><g><use xlink:href="#bkwLSZpkt" opacity="1" fill="#385f3b" fill-opacity="1"></use></g><g><use xlink:href="#egXApmDOn" opacity="1" fill="#385f3b" fill-opacity="1"></use></g><g><use xlink:href="#f1qaOzNLNt" opacity="1" fill="#385f3b" fill-opacity="1"></use></g><g><use xlink:href="#aKkDiD1AG" opacity="1" fill="#385f3b" fill-opacity="1"></use></g><g><use xlink:href="#euHi1QZJo" opacity="1" fill="#385f3b" fill-opacity="1"></use></g><g><use xlink:href="#b4dZQgRhsS" opacity="1" fill="#385f3b" fill-opacity="1"></use></g><g><use xlink:href="#b27JNNAdnq" opacity="1" fill="#385f3b" fill-opacity="1"></use></g><g><use xlink:href="#a1zqkRcuzY" opacity="1" fill="#385f3b" fill-opacity="1"></use></g><g><use xlink:href="#a1vwCs6OL6" opacity="1" fill="#385f3b" fill-opacity="1"></use></g><g><use xlink:href="#a1e0KX5Vt8" opacity="1" fill="#385f3b" fill-opacity="1"></use></g><g><use xlink:href="#ed4CUxL7a" opacity="1" fill="#385f3b" fill-opacity="1"></use></g><g><use xlink:href="#c5MhKbGdVb" opacity="1" fill="#385f3b" fill-opacity="1"></use></g><g><use xlink:href="#f1OjQ5a3xF" opacity="1" fill="#385f3b" fill-opacity="1"></use></g><g><use xlink:href="#b7JUL5b3x" opacity="1" fill="#385f3b" fill-opacity="1"></use></g><g><use xlink:href="#fOoNOq9I" opacity="1" fill="#385f3b" fill-opacity="1"></use></g><g><use xlink:href="#g1WcJzpHDz" opacity="1" fill="#385f3b" fill-opacity="1"></use></g><g><use xlink:href="#a1OyT4snEX" opacity="1" fill="#385f3b" fill-opacity="1"></use></g><g><use xlink:href="#bLaBk3Jt2" opacity="1" fill="#385f3b" fill-opacity="1"></use></g><g><use xlink:href="#j9cLeAsVlc" opacity="1" fill="#385f3b" fill-opacity="1"></use></g><g><use xlink:href="#f4hKUaTlhx" opacity="1" fill="#385f3b" fill-opacity="1"></use></g><g><use xlink:href="#cibdIePLN" opacity="1" fill="#385f3b" fill-opacity="1"></use></g><g><use xlink:href="#bjMu0eSO0" opacity="1" fill="#385f3b" fill-opacity="1"></use></g><g><use xlink:href="#eZQwA4DJC" opacity="1" fill="#385f3b" fill-opacity="1"></use></g><g><use xlink:href="#a4pgMXcZp" opacity="1" fill="#385f3b" fill-opacity="1"></use></g><g><use xlink:href="#bqBhDQrYL" opacity="1" fill="#385f3b" fill-opacity="1"></use></g><g><use xlink:href="#a5VvaYoXN" opacity="1" fill="#385f3b" fill-opacity="1"></use></g><g><use xlink:href="#amOlczRKu" opacity="1" fill="#385f3b" fill-opacity="1"></use></g><g><use xlink:href="#e8HDcU8nB" opacity="1" fill="#385f3b" fill-opacity="1"></use></g><g><use xlink:href="#a2iAO9et7Y" opacity="1" fill="#385f3b" fill-opacity="1"></use></g><g><use xlink:href="#b2nUD9hfsW" opacity="1" fill="#385f3b" fill-opacity="1"></use></g><g><use xlink:href="#a1IwAHuVGV" opacity="1" fill="#385f3b" fill-opacity="1"></use></g><g><use xlink:href="#gEKAsTdFE" opacity="1" fill="#385f3b" fill-opacity="1"></use></g><g><use xlink:href="#b53vYlgr" opacity="1" fill="#385f3b" fill-opacity="1"></use></g><g><use xlink:href="#d1HZOHjX8P" opacity="1" fill="#385f3b" fill-opacity="1"></use></g><g><use xlink:href="#a5UKiFLrQt" opacity="1" fill="#385f3b" fill-opacity="1"></use></g><g><use xlink:href="#cKUIRgLQk" opacity="1" fill="#385f3b" fill-opacity="1"></use></g><g><use xlink:href="#afGFYumr7" opacity="1" fill="#385f3b" fill-opacity="1"></use></g><g><use xlink:href="#a52GiKbEwI" opacity="1" fill="#385f3b" fill-opacity="1"></use></g><g><use xlink:href="#d3UsVcj05s" opacity="1" fill="#385f3b" fill-opacity="1"></use></g><g><use xlink:href="#a36vAgSuVd" opacity="1" fill="#385f3b" fill-opacity="1"></use></g><g><use xlink:href="#b4BAwHVKpF" opacity="1" fill="#385f3b" fill-opacity="1"></use></g><g><use xlink:href="#dJaT0mnJ6" opacity="1" fill="#385f3b" fill-opacity="1"></use></g><g><use xlink:href="#b1EC7PWGiK" opacity="1" fill="#385f3b" fill-opacity="1"></use></g><g><use xlink:href="#c16w0bgewr" opacity="1" fill="#385f3b" fill-opacity="1"></use></g><g><use xlink:href="#bcbxB785" opacity="1" fill="#385f3b" fill-opacity="1"></use></g><g><use xlink:href="#a988uGPNf" opacity="1" fill="#385f3b" fill-opacity="1"></use></g><g><use xlink:href="#a6xrJOv4bA" opacity="1" fill="#385f3b" fill-opacity="1"></use></g><g><use xlink:href="#e1axHN7icI" opacity="1" fill="#385f3b" fill-opacity="1"></use></g><g><use xlink:href="#a1DCa2jrra" opacity="1" fill="#385f3b" fill-opacity="1"></use></g><g><use xlink:href="#aS0VesNXH" opacity="1" fill="#385f3b" fill-opacity="1"></use></g><g><use xlink:href="#e2bafnWjLc" opacity="1" fill="#385f3b" fill-opacity="1"></use></g><g><use xlink:href="#b7eC6byus" opacity="1" fill="#385f3b" fill-opacity="1"></use></g><g><use xlink:href="#g2UPP1sZR2" opacity="1" fill="#385f3b" fill-opacity="1"></use></g><g><use xlink:href="#d120X2gQwI" opacity="1" fill="#385f3b" fill-opacity="1"></use></g><g><use xlink:href="#aYTfWuCdZ" opacity="1" fill="#385f3b" fill-opacity="1"></use></g><g><use xlink:href="#c1cYgFfT22" opacity="1" fill="#385f3b" fill-opacity="1"></use></g><g><use xlink:href="#c18UpcvQnh" opacity="1" fill="#385f3b" fill-opacity="1"></use></g><g><use xlink:href="#i8EeDqu6zv" opacity="1" fill="#385f3b" fill-opacity="1"></use></g><g><use xlink:href="#c2Dp34bNTb" opacity="1" fill="#385f3b" fill-opacity="1"></use></g><g><use xlink:href="#a8PiWIwj" opacity="1" fill="#385f3b" fill-opacity="1"></use></g><g><use xlink:href="#b1hBnz9X3w" opacity="1" fill="#385f3b" fill-opacity="1"></use></g><g><use xlink:href="#by3F36oil" opacity="1" fill="#385f3b" fill-opacity="1"></use></g><g><use xlink:href="#b3Lr60NPvE" opacity="1" fill="#385f3b" fill-opacity="1"></use></g><g><use xlink:href="#b46YmBrFk" opacity="1" fill="#385f3b" fill-opacity="1"></use></g><g><use xlink:href="#b3eFKiPbzv" opacity="1" fill="#385f3b" fill-opacity="1"></use></g><g><use xlink:href="#cRDbkpu5r" opacity="1" fill="#385f3b" fill-opacity="1"></use></g><g><use xlink:href="#aopFW3Uy6" opacity="1" fill="#385f3b" fill-opacity="1"></use></g><g><use xlink:href="#f57pXi27zh" opacity="1" fill="#385f3b" fill-opacity="1"></use></g><g><use xlink:href="#iM5WwIWxR" opacity="1" fill="#385f3b" fill-opacity="1"></use></g><g><use xlink:href="#h1Uy5hAQZ7" opacity="1" fill="#385f3b" fill-opacity="1"></use></g><g><use xlink:href="#a1UJpRnI4" opacity="1" fill="#385f3b" fill-opacity="1"></use></g><g><use xlink:href="#c2DKvtcCkY" opacity="1" fill="#385f3b" fill-opacity="1"></use></g><g><use xlink:href="#c7FvLuKua" opacity="1" fill="#385f3b" fill-opacity="1"></use></g><g><use xlink:href="#dg5NIhMrb" opacity="1" fill="#385f3b" fill-opacity="1"></use></g><g><use xlink:href="#f15rFEgP8B" opacity="1" fill="#385f3b" fill-opacity="1"></use></g><g><use xlink:href="#e1A56GTuWa" opacity="1" fill="#385f3b" fill-opacity="1"></use></g><g><use xlink:href="#c3et8Hx28i" opacity="1" fill="#385f3b" fill-opacity="1"></use></g><g><use xlink:href="#a2llxYMRAU" opacity="1" fill="#385f3b" fill-opacity="1"></use></g><g><use xlink:href="#axjQ97C2X" opacity="1" fill="#385f3b" fill-opacity="1"></use></g><g><use xlink:href="#b1d0K7SByu" opacity="1" fill="#385f3b" fill-opacity="1"></use></g><g><use xlink:href="#c5t9KAUzaJ" opacity="1" fill="#385f3b" fill-opacity="1"></use></g><g><use xlink:href="#duDgKpyAY" opacity="1" fill="#385f3b" fill-opacity="1"></use></g><g><use xlink:href="#aYEkXRSb6" opacity="1" fill="#385f3b" fill-opacity="1"></use></g><g><use xlink:href="#apaECyi9x" opacity="1" fill="#385f3b" fill-opacity="1"></use></g><g><use xlink:href="#a21tZPPzfc" opacity="1" fill="#385f3b" fill-opacity="1"></use></g><g><use xlink:href="#f7SUxhXSuY" opacity="1" fill="#385f3b" fill-opacity="1"></use></g><g><use xlink:href="#a2YTzapLLp" opacity="1" fill="#385f3b" fill-opacity="1"></use></g><g><use xlink:href="#d4MCghKI7g" opacity="1" fill="#385f3b" fill-opacity="1"></use></g><g><use xlink:href="#aXjsy7hhn" opacity="1" fill="#385f3b" fill-opacity="1"></use></g><g><use xlink:href="#gsT2EQFQW" opacity="1" fill="#385f3b" fill-opacity="1"></use></g><g><use xlink:href="#a2ezOU5vxU" opacity="1" fill="#385f3b" fill-opacity="1"></use></g><g><use xlink:href="#d5VQrc1oo" opacity="1" fill="#385f3b" fill-opacity="1"></use></g><g><use xlink:href="#c17iqApGDZ" opacity="1" fill="#385f3b" fill-opacity="1"></use></g><g><use xlink:href="#a4XVpob5Bl" opacity="1" fill="#385f3b" fill-opacity="1"></use></g><g><use xlink:href="#cs75Gb4vU" opacity="1" fill="#385f3b" fill-opacity="1"></use></g><g><use xlink:href="#feIU41QNt" opacity="1" fill="#385f3b" fill-opacity="1"></use></g><g><use xlink:href="#a1ixRiAdAm" opacity="1" fill="#385f3b" fill-opacity="1"></use></g><g><use xlink:href="#b1vviqUTsX" opacity="1" fill="#385f3b" fill-opacity="1"></use></g><g><use xlink:href="#a7dC3YQFsW" opacity="1" fill="#385f3b" fill-opacity="1"></use></g><g><use xlink:href="#a2QGMAaQz0" opacity="1" fill="#385f3b" fill-opacity="1"></use></g><g><use xlink:href="#c6livp1vHD" opacity="1" fill="#385f3b" fill-opacity="1"></use></g><g><use xlink:href="#a4RGB7338" opacity="1" fill="#385f3b" fill-opacity="1"></use></g><g><use xlink:href="#b7Xe0BESJI" opacity="1" fill="#385f3b" fill-opacity="1"></use></g><g><use xlink:href="#b1nZxW3Gt" opacity="1" fill="#385f3b" fill-opacity="1"></use></g><g><use xlink:href="#f1kJPYF2Qg" opacity="1" fill="#385f3b" fill-opacity="1"></use></g><g><use xlink:href="#a6sswXxq6l" opacity="1" fill="#385f3b" fill-opacity="1"></use></g><g><use xlink:href="#a6inRIXab" opacity="1" fill="#385f3b" fill-opacity="1"></use></g><g><use xlink:href="#a2rkbPlHy8" opacity="1" fill="#385f3b" fill-opacity="1"></use></g><g><use xlink:href="#bkvOAAFd1" opacity="1" fill="#385f3b" fill-opacity="1"></use></g><g><use xlink:href="#iOZnwKjPw" opacity="1" fill="#385f3b" fill-opacity="1"></use></g><g><use xlink:href="#e1jr3v9Y9l" opacity="1" fill="#385f3b" fill-opacity="1"></use></g><g><use xlink:href="#c1UAQsGtr" opacity="1" fill="#385f3b" fill-opacity="1"></use></g><g><use xlink:href="#etoEsbmuv" opacity="1" fill="#385f3b" fill-opacity="1"></use></g><g><use xlink:href="#a1oA1bUWB" opacity="1" fill="#385f3b" fill-opacity="1"></use></g><g><use xlink:href="#de20DQ7DI" opacity="1" fill="#385f3b" fill-opacity="1"></use></g><g><use xlink:href="#aw4QSVs41" opacity="1" fill="#385f3b" fill-opacity="1"></use></g><g><use xlink:href="#cfMJnu3zu" opacity="1" fill="#385f3b" fill-opacity="1"></use></g><g><use xlink:href="#b20QPHAjsa" opacity="1" fill="#385f3b" fill-opacity="1"></use></g><g><use xlink:href="#a3oqmwFEX8" opacity="1" fill="#385f3b" fill-opacity="1"></use></g><g><use xlink:href="#fSXi0LSB" opacity="1" fill="#385f3b" fill-opacity="1"></use></g><g><use xlink:href="#f5gunavBE" opacity="1" fill="#385f3b" fill-opacity="1"></use></g><g><use xlink:href="#a5XPLmtN7" opacity="1" fill="#385f3b" fill-opacity="1"></use></g><g><use xlink:href="#a1b958v2Mm" opacity="1" fill="#385f3b" fill-opacity="1"></use></g><g><use xlink:href="#e4mmE8FZpF" opacity="1" fill="#385f3b" fill-opacity="1"></use></g><g><use xlink:href="#bhdRgPm9z" opacity="1" fill="#385f3b" fill-opacity="1"></use></g><g><use xlink:href="#c1vs4lNCd" opacity="1" fill="#385f3b" fill-opacity="1"></use></g><g><use xlink:href="#g2ohOEtQCg" opacity="1" fill="#385f3b" fill-opacity="1"></use></g><g><use xlink:href="#dqV5RxlGX" opacity="1" fill="#385f3b" fill-opacity="1"></use></g><g><use xlink:href="#hlOQ5lkF6" opacity="1" fill="#385f3b" fill-opacity="1"></use></g><g><use xlink:href="#eSVX6lCjD" opacity="1" fill="#385f3b" fill-opacity="1"></use></g><g><use xlink:href="#a1U9qzeMdK" opacity="1" fill="#385f3b" fill-opacity="1"></use></g><g><use xlink:href="#e2eGqjQiIz" opacity="1" fill="#385f3b" fill-opacity="1"></use></g><g><use xlink:href="#bnsdfR0G" opacity="1" fill="#385f3b" fill-opacity="1"></use></g><g><use xlink:href="#aA0NydvhF" opacity="1" fill="#385f3b" fill-opacity="1"></use></g><g><use xlink:href="#acOuo3xT3" opacity="1" fill="#385f3b" fill-opacity="1"></use></g><g><use xlink:href="#a4SiSrVZMb" opacity="1" fill="#385f3b" fill-opacity="1"></use></g><g><use xlink:href="#a3900Ok8tp" opacity="1" fill="#385f3b" fill-opacity="1"></use></g><g><use xlink:href="#arcgZbG0u" opacity="1" fill="#385f3b" fill-opacity="1"></use></g><g><use xlink:href="#b1t8QVRUOD" opacity="1" fill="#385f3b" fill-opacity="1"></use></g><g><use xlink:href="#bIFOjEWNn" opacity="1" fill="#385f3b" fill-opacity="1"></use></g><g><use xlink:href="#ad8dvxtiG" opacity="1" fill="#385f3b" fill-opacity="1"></use></g><g><use xlink:href="#a2EidQ4K8" opacity="1" fill="#385f3b" fill-opacity="1"></use></g><g><use xlink:href="#bjVyM7Ram" opacity="1" fill="#385f3b" fill-opacity="1"></use></g><g><use xlink:href="#asZqaYsZr" opacity="1" fill="#385f3b" fill-opacity="1"></use></g><g><use xlink:href="#fZypasi1L" opacity="1" fill="#385f3b" fill-opacity="1"></use></g><g><use xlink:href="#b3KUkhudfD" opacity="1" fill="#385f3b" fill-opacity="1"></use></g><g><use xlink:href="#d1W6yxL1c" opacity="1" fill="#385f3b" fill-opacity="1"></use></g><g><use xlink:href="#c4lmXI6fCV" opacity="1" fill="#385f3b" fill-opacity="1"></use></g><g><use xlink:href="#b15xaGRp6T" opacity="1" fill="#385f3b" fill-opacity="1"></use></g><g><use xlink:href="#eqNPjJ4s" opacity="1" fill="#385f3b" fill-opacity="1"></use></g><g><use xlink:href="#dvGE455g2" opacity="1" fill="#385f3b" fill-opacity="1"></use></g><g><use xlink:href="#c2REQvvhXl" opacity="1" fill="#385f3b" fill-opacity="1"></use></g><g><use xlink:href="#c1VM1AfSc" opacity="1" fill="#385f3b" fill-opacity="1"></use></g><g><use xlink:href="#a29JDVCNQn" opacity="1" fill="#385f3b" fill-opacity="1"></use></g><g><use xlink:href="#c4H02BJ6kZ" opacity="1" fill="#385f3b" fill-opacity="1"></use></g><g><use xlink:href="#b2APd7S9OS" opacity="1" fill="#385f3b" fill-opacity="1"></use></g><g><use xlink:href="#a5p9wv8MQC" opacity="1" fill="#385f3b" fill-opacity="1"></use></g><g><use xlink:href="#a7TcuKa6l4" opacity="1" fill="#385f3b" fill-opacity="1"></use></g><g><use xlink:href="#d61qNrgiML" opacity="1" fill="#385f3b" fill-opacity="1"></use></g><g><use xlink:href="#a2gfh5Vgjp" opacity="1" fill="#385f3b" fill-opacity="1"></use></g><g><use xlink:href="#e2qBq1UZLu" opacity="1" fill="#385f3b" fill-opacity="1"></use></g><g><use xlink:href="#b8CGQvzQL" opacity="1" fill="#385f3b" fill-opacity="1"></use></g><g><use xlink:href="#g36LAyZTck" opacity="1" fill="#385f3b" fill-opacity="1"></use></g><g><use xlink:href="#alJGzmpnj" opacity="1" fill="#385f3b" fill-opacity="1"></use></g><g><use xlink:href="#dVndZPq6b" opacity="1" fill="#385f3b" fill-opacity="1"></use></g><g><use xlink:href="#a8PnuJ21E" opacity="1" fill="#385f3b" fill-opacity="1"></use></g><g><use xlink:href="#hH6gp5Zh" opacity="1" fill="#385f3b" fill-opacity="1"></use></g><g><use xlink:href="#e10VhjZfzV" opacity="1" fill="#385f3b" fill-opacity="1"></use></g><g><use xlink:href="#f7Ouu8AWY" opacity="1" fill="#385f3b" fill-opacity="1"></use></g><g><use xlink:href="#a7dj9Li3Nu" opacity="1" fill="#385f3b" fill-opacity="1"></use></g><g><use xlink:href="#a63EYL4IOo" opacity="1" fill="#385f3b" fill-opacity="1"></use></g><g><use xlink:href="#b3I8836d3c" opacity="1" fill="#385f3b" fill-opacity="1"></use></g></g></g></svg>